<svg version="1.1" id="Layer_1" xmlns="http://www.w3.org/2000/svg" xmlns:xlink="http://www.w3.org/1999/xlink" x="0px" y="0px"
	 width="100%" viewBox="0 0 979 727" enable-background="new 0 0 979 727" xml:space="preserve">
<path fill="#181F3A" opacity="1.000000" stroke="none" 
	d="
M980.000000,2.000000 
	C980.000000,243.361374 980.000000,484.722748 979.544067,726.542053 
	C674.235291,727.000916 369.382385,727.004028 64.529526,726.997925 
	C43.707863,726.997498 22.886200,726.927917 2.036268,726.440552 
	C2.003659,486.389496 1.998839,246.788467 2.004969,7.187424 
	C2.005012,5.526320 2.156181,3.865221 2.684783,2.193017 
	C326.426086,2.179766 649.719421,2.177986 973.012695,2.168220 
	C975.341797,2.168150 977.670898,2.058489 980.000000,2.000000 
M101.007896,625.321411 
	C102.127556,635.169861 103.247215,645.018372 104.362976,654.832581 
	C387.454956,624.878174 670.196960,594.960876 952.889709,565.048706 
	C935.021179,396.174255 917.221130,227.947708 899.384705,59.376591 
	C616.104492,89.346184 333.558105,119.238136 50.849884,149.147202 
	C51.050060,151.548843 51.165775,153.370377 51.358635,155.183731 
	C53.222500,172.708954 55.117058,190.230911 56.967396,207.757553 
	C58.765350,224.787979 60.502144,241.824875 62.301823,258.855103 
	C64.171349,276.546265 66.099106,294.231323 67.973526,311.921967 
	C69.777901,328.951569 71.530151,345.986633 73.335625,363.016113 
	C75.193626,380.541077 77.104874,398.060364 78.962158,415.585388 
	C80.784454,432.780151 82.555252,449.980377 84.372437,467.175690 
	C86.224548,484.701447 88.105927,502.224152 89.973984,519.748230 
	C91.824326,537.106140 93.691307,554.462280 95.519173,571.822571 
	C97.364639,589.350098 99.171028,606.881775 101.007896,625.321411 
z"/>
<path fill="#C4C7C5" opacity="1.000000" stroke="none" 
	d="
M980.000000,1.500000 
	C977.670898,2.058489 975.341797,2.168150 973.012695,2.168220 
	C649.719421,2.177986 326.426086,2.179766 2.379754,2.116135 
	C1.417816,2.033570 1.208908,2.016785 1.000000,2.000000 
	C1.166667,1.666667 1.315919,1.056198 1.502793,1.044456 
	C2.830883,0.961004 4.166667,1.000000 5.500000,1.000000 
	C330.333344,1.000000 655.166687,1.000000 980.000000,1.500000 
z"/>
<path fill="#737888" opacity="1.000000" stroke="none" 
	d="
M2.064536,726.890503 
	C22.886200,726.927917 43.707863,726.997498 64.529526,726.997925 
	C369.382385,727.004028 674.235291,727.000916 979.544067,727.000000 
	C979.833557,727.333374 979.684509,727.943848 979.497864,727.955505 
	C978.170288,728.039001 976.835083,728.000000 975.502319,728.000000 
	C651.305542,728.000000 327.108704,728.000000 2.464177,727.722168 
	C2.032481,727.259705 2.048509,727.075134 2.064536,726.890503 
z"/>
<path fill="#8B8E9C" opacity="1.000000" stroke="none" 
	d="
M2.036268,726.440552 
	C2.048509,727.075134 2.032481,727.259705 2.008228,727.722168 
	C1.666670,727.833618 1.056182,727.684631 1.044453,727.498047 
	C0.961033,726.170715 1.000000,724.835754 1.000000,723.503174 
	C1.000000,483.309631 1.000000,243.116058 1.000000,2.461255 
	C1.208908,2.016785 1.417816,2.033570 1.931753,2.127237 
	C2.156181,3.865221 2.005012,5.526320 2.004969,7.187424 
	C1.998839,246.788467 2.003659,486.389496 2.036268,726.440552 
z"/>
<path fill="#FEFEFF" opacity="1.000000" stroke="none" 
	d="
M101.001221,624.866516 
	C99.171028,606.881775 97.364639,589.350098 95.519173,571.822571 
	C93.691307,554.462280 91.824326,537.106140 89.973984,519.748230 
	C88.105927,502.224152 86.224548,484.701447 84.372437,467.175690 
	C82.555252,449.980377 80.784454,432.780151 78.962158,415.585388 
	C77.104874,398.060364 75.193626,380.541077 73.335625,363.016113 
	C71.530151,345.986633 69.777901,328.951569 67.973526,311.921967 
	C66.099106,294.231323 64.171349,276.546265 62.301823,258.855103 
	C60.502144,241.824875 58.765350,224.787979 56.967396,207.757553 
	C55.117058,190.230911 53.222500,172.708954 51.358635,155.183731 
	C51.165775,153.370377 51.050060,151.548843 50.849884,149.147202 
	C333.558105,119.238136 616.104492,89.346184 899.384705,59.376591 
	C917.221130,227.947708 935.021179,396.174255 952.889709,565.048706 
	C670.196960,594.960876 387.454956,624.878174 104.362976,654.832581 
	C103.247215,645.018372 102.127556,635.169861 101.001221,624.866516 
M496.580719,298.239044 
	C496.319855,298.440125 496.125275,298.692383 495.121368,298.994751 
	C488.865906,299.660858 482.612640,300.348297 476.354492,300.988403 
	C465.479767,302.100739 454.596954,303.135437 443.726898,304.291046 
	C429.406036,305.813568 415.099335,307.469482 400.776947,308.976959 
	C389.905121,310.121246 379.012604,311.068359 368.139771,312.203522 
	C356.615723,313.406677 345.106567,314.751465 333.586243,315.991425 
	C322.883850,317.143372 312.173004,318.216522 301.470245,319.365204 
	C290.442291,320.548798 279.423828,321.821655 268.393463,322.981750 
	C257.521881,324.125153 246.635773,325.130676 235.764725,326.278992 
	C221.278091,327.809235 206.803146,329.450256 192.316910,330.984253 
	C181.446457,332.135376 170.561172,333.146637 159.691528,334.304993 
	C148.663727,335.480164 137.649246,336.779663 126.624825,337.987335 
	C116.508316,339.095581 106.386345,340.153931 96.266785,341.234222 
	C108.697311,341.159485 121.022079,339.986328 133.334106,338.691956 
	C147.661606,337.185638 161.973206,335.528107 176.300690,334.021515 
	C187.175568,332.877991 198.070709,331.927185 208.945618,330.784027 
	C223.602081,329.243317 238.245041,327.574860 252.898972,326.009491 
	C263.770264,324.848236 274.653076,323.794342 285.524750,322.636597 
	C296.557220,321.461670 307.578064,320.177155 318.611938,319.015839 
	C329.486176,317.871246 340.376526,316.878357 351.248688,315.714996 
	C365.408295,314.199890 379.550140,312.518311 393.712128,311.026764 
	C407.716217,309.551910 421.740845,308.272614 435.747253,306.819000 
	C450.735931,305.263428 465.726990,303.714783 480.689178,301.929779 
	C485.837402,301.315582 490.901855,299.998871 496.423218,298.763031 
	C496.684479,298.561157 496.877167,298.307220 497.420715,297.762177 
	C497.682312,297.560638 497.875549,297.306976 498.509521,296.460297 
	C498.683777,294.735321 498.858032,293.010376 499.032288,291.285400 
	C498.687775,291.268738 498.343292,291.252075 497.998779,291.235413 
	C497.998779,293.156830 497.998779,295.078217 497.581238,297.240784 
	C497.320770,297.442505 497.126617,297.695160 496.580719,298.239044 
M235.129532,152.232101 
	C234.884781,151.223877 234.640045,150.215668 234.395309,149.207443 
	C232.872177,149.804367 231.349060,150.401306 229.430038,150.589371 
	C226.314301,150.364716 223.198547,150.140076 219.911789,149.207443 
	C218.166275,149.279419 215.008942,149.028214 214.906357,149.476303 
	C214.281021,152.207916 211.487030,155.907013 217.275345,157.599152 
	C218.222336,157.111267 219.169327,156.623383 220.647202,155.819809 
	C221.560486,155.166901 222.473785,154.513992 223.460373,153.808685 
	C224.385498,154.925003 225.264816,155.986069 226.236206,157.158218 
	C227.614685,155.965103 228.752350,154.980438 230.264404,154.408005 
	C231.689972,153.800400 233.115555,153.192795 235.129532,152.232101 
M894.520569,206.578705 
	C891.841919,198.651688 887.801453,206.085144 883.910278,205.874359 
	C884.652588,208.082993 885.723511,210.854675 887.224609,211.111465 
	C889.560486,211.511047 892.188721,210.201431 894.904663,209.326965 
	C894.859497,208.687378 894.814331,208.047806 894.520569,206.578705 
M537.678650,246.309250 
	C539.076599,245.738327 540.474487,245.167404 541.872437,244.596481 
	C535.718384,241.878418 530.379639,244.909073 524.768250,245.763779 
	C524.756714,246.230850 524.745178,246.697922 524.733704,247.165009 
	C528.156494,247.443893 531.579285,247.722778 535.617859,247.906342 
	C536.117249,247.314850 536.616699,246.723343 537.678650,246.309250 
M171.297470,368.093475 
	C172.567352,369.288971 173.837234,370.484467 175.509811,372.059082 
	C175.817032,371.908234 176.912674,371.370331 178.034286,370.819702 
	C178.919357,371.994324 179.881393,373.271088 180.843430,374.547852 
	C181.244446,374.410248 181.645462,374.272614 182.046463,374.134979 
	C182.482788,371.244781 182.919113,368.354584 183.355453,365.464386 
	C182.914108,365.350677 182.472778,365.236969 182.031433,365.123260 
	C181.489899,366.701172 180.948364,368.279053 180.360260,369.992615 
	C179.268616,368.326538 178.391922,366.988525 176.926819,364.752472 
	C176.136215,367.305328 175.731201,368.613129 175.466064,369.469269 
	C173.743256,369.279602 172.409882,369.132843 170.797989,370.215637 
	C168.219452,369.747742 165.640930,369.279846 163.153275,368.828430 
	C162.298096,371.501160 161.655716,373.508820 161.013336,375.516449 
	C160.864624,375.461578 160.715912,375.406677 160.567215,375.351807 
	C160.912216,374.496307 161.257233,373.640808 161.644516,372.680511 
	C166.055603,377.194061 167.847839,377.295197 169.830215,373.401428 
	C168.230850,373.401428 166.590530,373.401428 163.783203,373.401428 
	C166.982346,371.441437 169.004730,370.202393 171.297470,368.093475 
M102.624229,239.164169 
	C103.563736,237.897736 104.503242,236.631302 105.634476,235.106430 
	C107.000237,236.937729 108.124123,238.444733 109.440208,240.209442 
	C111.193481,237.206497 112.659836,234.694992 114.126183,232.183502 
	C113.714500,231.926682 113.302818,231.669876 112.891136,231.413071 
	C111.633034,232.824188 110.374931,234.235321 109.116821,235.646439 
	C106.036591,234.699554 103.063057,234.742416 100.156830,235.206680 
	C98.754425,235.430710 97.167381,236.184586 96.287270,237.225555 
	C95.893440,237.691345 97.097168,240.472366 97.465210,240.449127 
	C98.981461,240.353424 100.455261,239.584976 101.999702,238.996750 
	C101.999702,238.996750 102.052055,238.927521 102.624229,239.164169 
M171.227402,207.379745 
	C168.913376,206.760895 166.599335,206.142059 163.706390,205.368393 
	C164.001984,208.856735 164.031372,211.334335 164.491989,213.729004 
	C164.718109,214.904556 165.743942,215.926300 166.407867,217.017654 
	C166.804001,215.827148 167.703583,214.543594 167.503876,213.463226 
	C166.848969,209.920181 167.425903,207.611298 171.106888,208.421997 
	C171.496277,215.932617 172.418655,216.449265 182.237869,214.549759 
	C181.846191,210.612717 181.501450,206.655731 181.011688,202.716797 
	C180.931564,202.072540 180.212051,201.507782 179.788071,200.906281 
	C179.193634,201.483658 178.391281,201.964218 178.064377,202.666168 
	C177.749756,203.341812 177.926834,204.246414 177.952423,203.718353 
	C175.411896,205.172470 173.681244,206.163040 171.227402,207.379745 
M140.385712,212.976364 
	C138.077637,210.616516 136.349136,206.793457 132.600296,209.819199 
	C131.306473,208.244797 130.349197,207.079910 129.391922,205.915039 
	C128.970413,206.211075 128.548889,206.507126 128.127380,206.803162 
	C128.696106,211.475708 129.264832,216.148254 129.747513,220.113861 
	C135.997345,221.246246 139.576675,219.019348 140.917572,214.443771 
	C141.496841,218.145416 144.017303,219.946793 147.257370,218.854095 
	C149.050964,218.249222 151.341217,215.374771 151.195923,213.717224 
	C151.017242,211.678940 148.891724,208.858231 146.959000,208.152664 
	C144.138458,207.122971 141.432632,208.636688 140.385712,212.976364 
M675.566345,104.587379 
	C674.370178,104.056358 673.174011,103.525337 671.977905,102.994316 
	C672.040283,102.714111 672.102661,102.433907 672.165039,102.153702 
	C673.298462,102.054985 674.431946,101.956268 675.565430,101.857559 
	C675.515930,101.340614 675.466492,100.823677 675.416992,100.306740 
	C673.796631,100.578247 671.374207,100.271919 670.691833,101.219170 
	C667.370911,105.828880 674.557495,104.190598 674.551453,107.443924 
	C673.175476,107.443924 671.890869,107.443924 669.659302,107.443924 
	C673.042053,109.923477 675.156311,109.639000 677.576233,107.320168 
	C680.854248,110.886200 682.410339,107.321381 683.832458,105.483871 
	C686.604004,101.902580 688.423706,101.610977 691.469421,104.863060 
	C692.027893,104.127800 692.601501,103.372604 693.135071,102.670189 
	C694.662354,103.986748 695.833191,104.995979 697.000000,106.000000 
	C697.000000,106.000000 696.994751,105.996269 697.481689,106.462456 
	C698.034912,104.509354 698.588135,102.556252 699.773926,100.913155 
	C702.952087,103.189964 706.130188,105.466766 710.365356,108.500862 
	C710.134583,104.294189 709.986328,101.592400 709.800659,98.208946 
	C707.536499,98.920311 705.920715,99.707092 704.243164,99.874435 
	C702.648376,100.033516 700.988953,99.545074 698.816711,99.427620 
	C697.220093,99.074989 695.623474,98.722359 693.831177,98.326492 
	C690.262817,99.379601 686.169495,100.587616 681.725464,101.899155 
	C678.876038,99.587494 678.051331,103.746651 675.566345,104.587379 
M92.404289,221.759171 
	C92.611534,221.634308 92.642120,221.475525 93.212776,221.070618 
	C93.461456,221.086044 93.710129,221.101486 94.214638,221.789856 
	C97.279480,226.188568 101.081360,222.999603 106.387527,223.277130 
	C104.313896,219.146393 103.491547,215.033737 100.999947,213.240875 
	C98.508575,211.448120 95.053040,213.293472 93.203094,216.613434 
	C90.744461,210.484207 88.207130,209.543198 80.077141,211.852692 
	C80.606277,216.489899 81.137077,221.141754 81.852531,227.411774 
	C85.919609,225.200073 89.023964,223.511902 92.404289,221.759171 
M627.442627,391.208374 
	C619.192444,392.138123 610.945068,393.092926 602.691528,393.992126 
	C588.164978,395.574677 573.647461,397.260895 559.098450,398.603668 
	C554.638123,399.015320 553.742371,400.755157 554.204773,404.995850 
	C558.913757,448.185577 563.420410,491.397369 568.001770,534.601074 
	C569.067139,544.647827 570.200989,554.687378 571.342346,565.086365 
	C597.409302,562.309448 622.936829,559.589966 648.592896,556.856750 
	C648.592896,555.403687 648.680664,554.426147 648.580017,553.468323 
	C645.658203,525.658752 642.726074,497.850189 639.777283,470.043457 
	C637.144470,445.215698 634.545959,420.383850 631.713928,395.578766 
	C631.531921,393.984924 629.469421,392.605774 627.442627,391.208374 
M135.204193,149.925369 
	C128.454834,150.610825 121.704018,151.282227 114.956421,151.984512 
	C98.996773,153.645569 83.046585,155.404724 67.073517,156.923920 
	C63.693581,157.245377 62.799664,158.901367 63.004681,161.811096 
	C63.318779,166.269058 63.881050,170.722549 63.930431,175.182449 
	C63.978146,179.491684 65.933159,181.336624 70.076271,180.991913 
	C78.324188,180.305649 86.580597,179.682358 94.807869,178.795303 
	C111.908318,176.951538 128.986328,174.900146 146.084351,173.033051 
	C162.035355,171.291183 177.994278,169.614563 193.964676,168.063446 
	C196.952408,167.773270 198.173233,166.486115 197.990326,163.647293 
	C197.649582,158.358459 197.538361,153.032043 196.746292,147.810059 
	C196.530991,146.390656 194.386047,144.551407 192.837921,144.208450 
	C190.317596,143.650116 187.543152,143.998245 184.904816,144.257523 
	C176.347931,145.098480 167.800095,146.037018 159.256546,147.006500 
	C151.534668,147.882721 143.822983,148.848862 135.204193,149.925369 
M868.376892,260.994537 
	C882.576355,259.423401 896.775818,257.852295 910.975281,256.281158 
	C910.924500,255.856918 910.873718,255.432663 910.822937,255.008408 
	C778.615173,268.999023 646.407349,282.989655 514.199524,296.980255 
	C514.238708,297.387146 514.277954,297.794037 514.317139,298.200928 
	C525.977722,297.039612 537.644104,295.932831 549.297485,294.703033 
	C563.622620,293.191284 577.931885,291.529602 592.257446,290.022156 
	C603.130920,288.877960 614.024963,287.929657 624.899353,286.793396 
	C639.719910,285.244812 654.527649,283.573639 669.346313,282.005981 
	C679.889526,280.890625 690.446228,279.902802 700.988464,278.778625 
	C712.347412,277.567383 723.693115,276.233826 735.050598,275.008698 
	C745.918762,273.836426 756.796570,272.754517 767.666382,271.596893 
	C778.698181,270.421997 789.722107,269.172943 800.755371,268.012146 
	C811.627869,266.868286 822.510742,265.823639 833.383484,264.681580 
	C844.745239,263.488129 856.100281,262.230499 868.376892,260.994537 
M130.675995,374.580750 
	C129.403961,373.618652 128.131927,372.656555 127.667641,372.305420 
	C125.690697,371.650269 124.556442,371.134460 123.367195,370.909882 
	C121.011574,370.465027 117.866035,369.112518 116.454880,370.115662 
	C114.883842,371.232452 113.941391,374.801971 114.479858,376.840240 
	C114.941879,378.589111 117.937065,380.834778 119.702774,380.743652 
	C121.450813,380.653412 123.229637,378.048187 124.651436,376.271271 
	C125.224495,375.555054 124.884422,374.108185 125.018425,372.130341 
	C126.856056,375.276825 128.285400,377.724213 130.442932,381.418396 
	C131.758850,377.706390 132.630356,375.247955 133.515945,372.749847 
	C134.266129,373.339294 134.847092,373.795776 135.428070,374.252258 
	C131.883469,371.631378 131.883469,371.631378 130.675995,374.580750 
M161.442093,217.305038 
	C161.726929,215.440018 162.133301,213.583725 162.268188,211.707916 
	C162.472076,208.872528 161.492706,207.166321 158.236481,206.695526 
	C151.502396,205.721909 154.817749,211.536804 153.237701,213.974472 
	C152.807739,214.637833 153.814453,216.711014 154.704132,217.585251 
	C155.311432,218.182037 156.864883,217.915314 157.986328,217.858261 
	C158.889908,217.812271 159.780060,217.502106 161.442093,217.305038 
M126.010277,211.637009 
	C123.937599,211.243530 121.864922,210.850037 119.398407,210.381790 
	C119.169205,209.728622 118.685349,208.349731 118.069305,206.594147 
	C115.094200,210.722076 116.784203,220.928268 120.305412,221.730209 
	C120.240646,220.368622 119.951828,219.033768 120.174370,217.790466 
	C120.460175,216.193771 121.156738,214.670609 121.676353,213.115768 
	C122.524536,214.587158 123.394859,216.046371 124.214050,217.533722 
	C124.897392,218.774445 125.520790,220.048157 126.170746,221.307251 
	C126.716934,221.043106 127.263115,220.778946 127.809303,220.514786 
	C127.344704,217.781723 126.880104,215.048660 126.010277,211.637009 
M132.617889,453.279419 
	C132.052048,452.542603 131.486206,451.805817 130.920349,451.069000 
	C130.386887,451.931000 129.416229,452.794769 129.419708,453.654633 
	C129.425293,455.036987 130.074478,456.416748 130.319763,457.314545 
	C135.754425,456.823883 140.853912,456.491577 145.905273,455.805023 
	C146.983917,455.658417 147.887726,454.225525 148.872086,453.385223 
	C147.779083,452.262756 146.477142,450.041687 145.628357,450.203125 
	C141.372635,451.012604 137.235504,452.445587 132.617889,453.279419 
M147.995148,306.902069 
	C147.039780,303.752777 145.030121,301.941925 141.719559,303.081177 
	C138.181732,304.298645 138.279724,306.832489 139.778473,309.856445 
	C140.206863,310.720795 139.432632,312.181213 139.210632,313.364014 
	C145.718002,316.168671 147.721100,314.892181 147.995148,306.902069 
M112.657150,306.077820 
	C110.836052,307.018921 109.014954,307.960022 107.193840,308.901123 
	C108.642159,310.971313 110.090469,313.041473 111.702278,315.345367 
	C110.475739,315.230774 109.096626,315.101898 107.717522,314.973053 
	C107.554634,315.427795 107.391747,315.882507 107.228859,316.337250 
	C109.067657,317.050446 110.911949,318.304657 112.743317,318.286072 
	C113.958199,318.273743 116.342537,315.950348 116.158524,315.503418 
	C115.245865,313.286896 113.653397,311.350311 112.121590,309.045959 
	C113.120308,309.045959 114.336792,309.045959 116.695938,309.045959 
	C114.958069,307.581635 114.132660,306.886139 112.657150,306.077820 
M118.661926,314.531769 
	C120.358925,317.318573 122.973328,318.243561 125.234512,316.016113 
	C126.312836,314.953857 125.719429,312.154541 125.783783,310.138885 
	C125.795715,309.764832 125.029350,309.207703 125.134079,309.018524 
	C126.848503,305.922760 124.690742,304.689056 122.532944,305.220154 
	C120.746307,305.659882 119.043892,307.699829 118.005310,309.447510 
	C117.385445,310.490570 118.117401,312.336945 118.661926,314.531769 
M173.194443,305.028442 
	C173.053253,304.383148 173.120895,303.377869 172.735138,303.154114 
	C170.951782,302.119476 169.024216,300.621704 167.185211,300.670807 
	C166.139145,300.698761 164.264603,303.435608 164.347931,304.859863 
	C164.511337,307.652618 166.763977,308.506592 169.496750,307.747528 
	C169.761246,307.674103 170.162994,308.094910 170.501007,308.286255 
	C170.467804,308.579163 170.434601,308.872040 170.401413,309.164948 
	C168.636215,309.164948 166.871033,309.164948 165.105835,309.164948 
	C165.005386,309.635162 164.904922,310.105347 164.804474,310.575562 
	C166.620361,311.035675 169.249588,312.454651 170.078720,311.751373 
	C171.683716,310.389984 172.274948,307.833405 173.194443,305.028442 
M162.563583,309.063324 
	C162.460312,307.603149 162.572495,306.086792 162.209137,304.694489 
	C161.442139,301.755463 159.212006,300.432098 156.554947,301.688477 
	C155.193787,302.332153 153.671509,304.623566 153.798111,306.028198 
	C154.100220,309.380035 156.560074,309.678955 159.333237,308.433502 
	C159.412659,308.397766 159.705978,308.838318 160.711731,309.973419 
	C158.009720,309.973419 156.091766,309.973419 153.582428,309.973419 
	C157.624756,314.391571 159.522995,314.204071 162.563583,309.063324 
M115.694725,220.161438 
	C116.497986,214.761841 111.011581,217.072342 108.359863,214.520691 
	C109.973595,214.350494 110.800339,214.222565 111.631088,214.186172 
	C112.635437,214.142181 113.643196,214.175735 114.649475,214.175735 
	C114.673553,213.587723 114.697624,212.999710 114.721703,212.411697 
	C112.297691,212.411697 109.808235,212.127197 107.506073,212.656830 
	C107.057098,212.760117 107.294029,216.026291 107.303024,217.833145 
	C107.305893,218.408661 107.920303,219.261215 107.703194,219.514954 
	C105.184250,222.458923 108.470802,222.908890 109.595512,222.836884 
	C111.537109,222.712585 113.412430,221.552933 115.694725,220.161438 
M137.331406,313.187378 
	C136.974121,311.452179 136.829788,309.634064 136.196167,308.006439 
	C135.628494,306.548218 134.590103,304.250092 133.638428,304.188385 
	C131.926682,304.077454 130.124374,305.363312 128.359909,306.065613 
	C128.568649,306.527100 128.777390,306.988617 128.986130,307.450104 
	C130.494080,306.993713 132.002029,306.537323 133.509995,306.080963 
	C133.687195,306.366669 133.864410,306.652405 134.041626,306.938110 
	C133.300232,307.923370 132.558823,308.908600 131.804306,309.911255 
	C132.920105,310.696686 134.015854,311.468018 135.111603,312.239319 
	C135.017746,312.563080 134.923874,312.886871 134.830017,313.210632 
	C132.900406,313.210632 130.970795,313.210632 128.462372,313.210632 
	C131.584930,316.971893 134.267166,316.879364 137.331406,313.187378 
M539.113953,267.600006 
	C537.953491,269.081696 536.793030,270.563385 535.632629,272.045074 
	C535.860046,272.426361 536.087524,272.807648 536.315002,273.188934 
	C538.970642,272.852875 541.626221,272.516846 544.281860,272.180817 
	C544.256104,271.702942 544.230286,271.225067 544.204529,270.747192 
	C542.921021,270.511597 541.637512,270.276031 541.108887,270.178986 
	C541.710632,267.350006 542.418457,264.876221 542.578857,262.367432 
	C542.603577,261.981567 539.968628,260.839203 538.814392,261.111115 
	C537.330444,261.460663 536.099792,262.885406 534.760071,263.846985 
	C535.017273,264.142853 535.274475,264.438721 535.531677,264.734589 
	C537.182007,264.329987 538.832275,263.925354 540.482483,263.520752 
	C540.197571,264.696167 539.912659,265.871582 539.113953,267.600006 
M155.574997,368.467041 
	C155.068512,370.040009 154.562027,371.612946 153.921494,373.602173 
	C152.806702,371.618317 152.028214,370.232971 151.383881,369.086365 
	C148.946671,369.867767 146.816864,370.550629 144.687042,371.233490 
	C144.633224,371.044586 144.579407,370.855682 144.525589,370.666779 
	C146.216690,370.359283 147.907776,370.051788 149.561996,369.751007 
	C150.585785,371.932068 151.333466,373.974182 152.487976,375.752075 
	C152.919418,376.416412 155.102188,376.811005 155.131180,376.743805 
	C156.190018,374.290009 157.131561,371.780334 157.920090,369.226135 
	C157.976456,369.043549 156.751190,368.465332 155.574997,368.467041 
M441.043549,133.962448 
	C445.983673,132.603027 442.747406,129.066833 442.517120,126.742493 
	C442.428833,125.851395 439.118896,125.279503 437.276947,124.562157 
	C437.038696,124.970894 436.800415,125.379631 436.562134,125.788368 
	C438.299011,128.339905 434.175323,133.198883 441.043549,133.962448 
M466.885895,123.439323 
	C464.700958,125.420639 462.515991,127.401955 459.553894,130.087982 
	C463.450409,130.421890 466.451111,130.679031 469.451843,130.936172 
	C469.825897,130.478821 470.199982,130.021469 470.574036,129.564102 
	C469.463776,127.309105 468.353516,125.054108 466.885895,123.439323 
M285.354950,141.324448 
	C285.217712,143.400894 284.830505,145.505157 285.057007,147.541138 
	C285.158356,148.451691 286.467194,149.880646 287.270905,149.910202 
	C288.536865,149.956757 290.375763,149.384323 291.022644,148.430206 
	C292.788452,145.825821 289.563477,141.217987 285.354950,141.324448 
M128.274612,404.349030 
	C127.446091,403.367371 126.617561,402.385712 125.789040,401.404022 
	C125.199287,402.113556 124.047592,402.897095 124.129387,403.518188 
	C124.340706,405.122742 125.182510,408.022827 125.621201,407.995300 
	C128.491531,407.815094 131.321701,406.995239 135.243164,406.152710 
	C133.171051,403.808350 131.967377,402.446503 130.763687,401.084656 
	C130.114014,402.091095 129.464340,403.097504 128.274612,404.349030 
M572.660583,118.393463 
	C572.368774,116.029099 572.076965,113.664726 571.785217,111.300354 
	C571.161072,111.124329 570.536926,110.948303 569.912781,110.772270 
	C568.745117,113.351341 567.577454,115.930412 566.409790,118.509491 
	C568.441223,118.732742 570.472717,118.955986 572.660583,118.393463 
M330.686035,145.449814 
	C337.196991,144.001160 332.895813,139.836670 333.408691,136.326660 
	C326.342255,141.857574 326.309448,141.955658 330.686035,145.449814 
M908.397949,536.299438 
	C904.136353,537.593384 903.025391,538.736633 903.261047,541.552368 
	C904.804443,541.406433 907.255615,540.592468 907.728394,541.234802 
	C909.410095,543.519531 910.817322,543.463318 911.578857,541.085144 
	C912.201233,539.141479 913.030884,536.180420 908.397949,536.299438 
M243.160995,148.868530 
	C237.677246,147.431107 237.161362,147.671524 237.448807,151.091827 
	C238.641510,150.518127 239.977295,149.875580 241.247650,149.264526 
	C242.612106,151.419617 243.673111,153.095398 245.039322,155.253281 
	C246.687317,151.219101 247.964676,148.092239 249.242020,144.965363 
	C249.115997,147.503906 245.365631,150.131775 243.160995,148.868530 
M627.986267,109.657867 
	C629.371277,114.549934 630.030518,114.793976 634.664734,112.084572 
	C634.370850,109.830055 634.074707,107.559021 633.710327,104.764160 
	C631.648010,106.302910 629.903442,107.604530 627.986267,109.657867 
M305.343994,148.050461 
	C306.280914,146.778198 308.194275,144.582169 308.001587,144.378510 
	C306.326050,142.607407 304.272888,141.193604 302.331970,139.673569 
	C302.004761,139.997742 301.677551,140.321930 301.350372,140.646118 
	C302.808319,142.958588 299.621948,146.968674 305.343994,148.050461 
M357.442749,136.831360 
	C357.258118,139.942841 358.341858,142.326813 361.791840,141.996704 
	C364.043701,141.781250 366.198059,140.547028 368.396088,139.769135 
	C366.456146,139.572510 364.552795,140.353333 362.681244,140.283340 
	C361.487518,140.238693 360.340851,138.934021 359.173096,138.194290 
	C359.895752,137.116867 360.412170,135.717072 361.414062,135.076218 
	C362.073700,134.654266 363.432831,135.325760 365.392853,135.666611 
	C361.746490,131.851776 359.463440,132.260391 357.442749,136.831360 
M517.618774,119.764107 
	C515.970032,120.121597 514.101746,120.144241 512.784546,121.007545 
	C512.283813,121.335724 512.598145,124.008560 513.370972,124.855865 
	C514.082703,125.636307 516.958008,125.822250 517.069214,125.544601 
	C517.715515,123.931282 517.827148,122.103783 517.618774,119.764107 
M616.231079,106.475494 
	C615.579834,107.749634 614.266846,109.122047 614.437866,110.274033 
	C614.673401,111.859772 615.732666,113.690308 617.015686,114.620468 
	C617.831543,115.211960 620.329102,114.845200 620.939941,114.044319 
	C621.895508,112.791504 622.753296,110.202911 622.098816,109.270164 
	C621.037720,107.757751 618.718445,107.128105 616.231079,106.475494 
M549.296448,119.762764 
	C550.528809,118.328842 551.761230,116.894920 552.993591,115.461014 
	C552.055359,114.682014 551.174561,113.382713 550.162598,113.270920 
	C549.158569,113.160004 547.093933,114.265228 547.105713,114.801697 
	C547.155823,117.084557 547.803711,119.354279 548.233398,121.628799 
	C548.491699,121.237015 548.749939,120.845230 549.296448,119.762764 
M398.335114,133.943283 
	C396.711365,133.423569 395.096466,132.633194 393.457489,132.579651 
	C393.061249,132.566696 391.977448,135.182632 392.314423,136.236496 
	C392.662964,137.326599 394.355316,137.987045 395.459839,138.835449 
	C396.507141,137.438644 397.554443,136.041855 398.335114,133.943283 
M474.952911,254.099548 
	C474.352264,252.592804 473.763550,251.081161 473.146179,249.581314 
	C472.818298,248.784714 472.440765,248.008560 472.085632,247.223175 
	C471.110168,247.761856 469.287476,248.331421 469.305817,248.833878 
	C469.385651,251.022064 469.882996,253.231201 470.595093,255.307053 
	C470.670532,255.526947 473.146881,254.923233 474.952911,254.099548 
M499.476379,127.394005 
	C499.889252,126.816399 500.302124,126.238800 500.126984,126.483818 
	C498.245819,125.512985 496.627380,124.677719 495.008911,123.842461 
	C496.396790,122.433746 497.784637,121.025040 499.674377,119.106873 
	C498.029327,119.347923 495.754456,119.050896 494.557220,120.047897 
	C493.522614,120.909477 492.869873,123.883675 493.551727,124.778900 
	C494.677673,126.257202 497.014740,126.813065 499.476379,127.394005 
M528.808533,271.118591 
	C530.373413,270.067230 531.938293,269.015900 533.269226,268.121704 
	C531.392456,266.462402 530.015503,265.244904 528.849548,264.214020 
	C527.671387,265.782593 526.556458,267.267029 525.573303,268.576050 
	C526.684143,269.226440 527.708984,269.826508 528.808533,271.118591 
M595.923950,117.385490 
	C600.072815,115.926414 595.260132,113.285072 596.704468,111.469193 
	C595.830627,111.232086 594.777222,110.580154 594.127625,110.861252 
	C593.286255,111.225349 592.766785,112.333389 592.108704,113.121132 
	C593.839172,114.151642 591.014404,118.402802 595.923950,117.385490 
M618.088989,571.345093 
	C618.363098,570.251526 618.637207,569.158020 618.948120,567.917725 
	C616.981262,567.742310 615.070862,567.083435 613.570068,567.604431 
	C612.514832,567.970642 612.016907,569.942566 611.270203,571.197510 
	C613.494141,571.453735 615.718140,571.709961 618.088989,571.345093 
M638.489807,105.977272 
	C637.634033,107.469055 636.379089,108.894318 636.114014,110.484581 
	C636.004211,111.143517 637.907288,112.494293 639.101440,112.864769 
	C639.703674,113.051605 641.581238,111.541115 641.482666,111.161568 
	C641.019592,109.378532 640.070801,107.721634 638.489807,105.977272 
M449.405640,131.432419 
	C450.980072,131.633621 452.660126,132.224167 454.075836,131.840256 
	C454.625366,131.691238 455.006561,129.215668 454.662506,128.033340 
	C454.401398,127.136101 452.870514,126.608353 451.904633,125.916206 
	C451.024170,127.525314 450.143707,129.134430 449.405640,131.432419 
M412.429077,133.798721 
	C411.699646,132.539719 410.970215,131.280716 410.240753,130.021713 
	C409.156372,131.039398 407.155029,132.106079 407.206146,133.063126 
	C407.279755,134.440170 408.678833,135.929077 409.865082,136.966858 
	C410.291565,137.339966 411.739807,136.545074 413.969696,135.950424 
	C411.687439,135.333420 410.742767,135.078033 408.834381,134.562103 
	C410.483063,134.241257 411.113464,134.118576 412.429077,133.798721 
M316.816681,141.081390 
	C316.834259,141.920166 316.678009,142.811142 316.910461,143.585403 
	C317.253204,144.727097 317.872803,145.785675 318.374481,146.879639 
	C319.604950,146.071365 321.740692,145.411789 321.902283,144.427948 
	C322.469482,140.974976 321.207855,138.848495 316.816681,141.081390 
M709.021301,562.033386 
	C711.032227,561.188721 713.043091,560.344116 715.572998,559.281433 
	C715.344299,558.988342 714.500305,557.163269 713.867065,557.233704 
	C711.909180,557.451355 710.031677,558.391357 708.034668,559.081360 
	C708.037598,559.087097 707.772644,558.571716 707.507629,558.056274 
	C707.216553,558.199341 706.925476,558.342346 706.634399,558.485413 
	C707.208069,559.645508 707.781799,560.805664 709.021301,562.033386 
M337.698303,142.158798 
	C337.845520,142.232758 338.018555,142.281509 338.127289,142.393005 
	C338.171356,142.438187 338.105530,142.702438 338.038177,142.727280 
	C337.276672,143.008347 336.505127,143.262253 335.736298,143.523438 
	C335.807159,143.926773 335.877991,144.330124 335.948822,144.733459 
	C337.217987,144.597565 339.501892,144.674164 339.582489,144.289337 
	C339.952057,142.524780 339.868774,140.597916 339.507690,138.818665 
	C339.451874,138.543625 337.107361,138.733017 335.821289,138.707626 
	C336.240540,139.805298 336.659790,140.902969 337.698303,142.158798 
M382.526642,138.276260 
	C381.842163,138.376099 381.157684,138.475952 380.473175,138.575790 
	C380.406769,138.323242 380.340363,138.070694 380.273956,137.818146 
	C381.464600,137.287369 382.655243,136.756592 383.845886,136.225815 
	C383.877350,135.686676 383.908783,135.147537 383.940247,134.608398 
	C382.267548,134.384186 380.594879,134.159958 378.922180,133.935730 
	C378.870178,135.710999 378.818146,137.486282 378.766144,139.261536 
	C380.222351,138.963043 381.678528,138.664551 382.526642,138.276260 
M524.594421,120.828857 
	C525.469543,121.421974 526.344666,122.015091 527.216248,122.613503 
	C526.458740,122.938019 525.701172,123.262535 524.943665,123.587051 
	C525.085327,124.028519 525.226990,124.469986 525.368652,124.911453 
	C526.796204,124.461586 529.338623,124.176071 529.433899,123.529793 
	C529.680481,121.857262 528.848022,120.025673 528.446350,118.257607 
	C527.072083,118.906311 525.697754,119.555016 524.594421,120.828857 
M133.304016,286.684357 
	C132.920334,286.143066 132.536652,285.601807 132.152969,285.060516 
	C131.954132,285.554504 131.755310,286.048492 131.556488,286.542480 
	C133.555786,286.972748 135.555099,287.403015 137.554413,287.833313 
	C137.631470,287.384155 137.708542,286.935028 137.785599,286.485870 
	C136.488693,286.698639 135.191803,286.911377 133.304016,286.684357 
M497.128693,281.596680 
	C497.128693,283.003906 497.128693,284.411102 497.128693,285.818329 
	C497.431702,285.811951 497.734711,285.805603 498.037750,285.799255 
	C497.878540,284.266144 497.719330,282.733032 497.128693,281.596680 
M916.001221,243.852737 
	C915.894043,243.306946 915.786804,242.761154 915.679626,242.215363 
	C915.540527,242.235931 915.401367,242.256516 915.262207,242.277084 
	C915.262207,243.783905 915.262207,245.290726 915.262207,246.797546 
	C915.450134,246.805084 915.638062,246.812607 915.825989,246.820145 
	C915.885681,246.047287 915.945374,245.274429 916.001221,243.852737 
M509.547363,287.153687 
	C509.367523,288.335083 509.187714,289.516479 509.007874,290.697876 
	C509.304413,290.721649 509.600922,290.745422 509.897461,290.769165 
	C509.897461,289.708984 509.897461,288.648773 509.547363,287.153687 
M251.983688,150.822556 
	C252.182220,151.218063 252.380768,151.613571 252.579315,152.009079 
	C252.692154,151.893890 252.900345,151.780853 252.902985,151.663208 
	C252.927917,150.552277 252.917831,149.440552 252.917831,148.329056 
	C252.631409,148.328262 252.345001,148.327469 252.058578,148.326660 
	C252.022232,148.923904 251.985886,149.521149 251.983688,150.822556 
M144.514008,285.392883 
	C144.392380,286.352509 144.270767,287.312134 144.149139,288.271790 
	C144.397629,288.287506 144.646103,288.303223 144.894592,288.318939 
	C144.894592,287.524628 144.894592,286.730347 144.514008,285.392883 
M159.958801,285.443268 
	C160.045547,285.991791 160.132294,286.540314 160.219025,287.088867 
	C160.451828,287.042603 160.684631,286.996338 160.917435,286.950104 
	C160.764267,286.317383 160.611115,285.684692 159.958801,285.443268 
M162.657990,284.048645 
	C163.004623,284.257904 163.351257,284.467133 163.697891,284.676361 
	C163.752045,284.388123 163.806198,284.099884 163.860352,283.811646 
	C163.347839,283.717468 162.835342,283.623291 162.657990,284.048645 
M915.512451,252.444855 
	C915.512451,252.444855 915.549988,252.519531 915.512451,252.444855 
z"/>
<path fill="#589BDF" opacity="1.000000" stroke="none" 
	d="
M627.862183,391.167572 
	C629.469421,392.605774 631.531921,393.984924 631.713928,395.578766 
	C634.545959,420.383850 637.144470,445.215698 639.777283,470.043457 
	C642.726074,497.850189 645.658203,525.658752 648.580017,553.468323 
	C648.680664,554.426147 648.592896,555.403687 648.592896,556.856750 
	C622.936829,559.589966 597.409302,562.309448 571.342346,565.086365 
	C570.200989,554.687378 569.067139,544.647827 568.001770,534.601074 
	C563.420410,491.397369 558.913757,448.185577 554.204773,404.995850 
	C553.742371,400.755157 554.638123,399.015320 559.098450,398.603668 
	C573.647461,397.260895 588.164978,395.574677 602.691528,393.992126 
	C610.945068,393.092926 619.192444,392.138123 627.862183,391.167572 
z"/>
<path fill="#F1F4F6" opacity="1.000000" stroke="none" 
	d="
M135.655502,149.850372 
	C143.822983,148.848862 151.534668,147.882721 159.256546,147.006500 
	C167.800095,146.037018 176.347931,145.098480 184.904816,144.257523 
	C187.543152,143.998245 190.317596,143.650116 192.837921,144.208450 
	C194.386047,144.551407 196.530991,146.390656 196.746292,147.810059 
	C197.538361,153.032043 197.649582,158.358459 197.990326,163.647293 
	C198.173233,166.486115 196.952408,167.773270 193.964676,168.063446 
	C177.994278,169.614563 162.035355,171.291183 146.084351,173.033051 
	C128.986328,174.900146 111.908318,176.951538 94.807869,178.795303 
	C86.580597,179.682358 78.324188,180.305649 70.076271,180.991913 
	C65.933159,181.336624 63.978146,179.491684 63.930431,175.182449 
	C63.881050,170.722549 63.318779,166.269058 63.004681,161.811096 
	C62.799664,158.901367 63.693581,157.245377 67.073517,156.923920 
	C83.046585,155.404724 98.996773,153.645569 114.956421,151.984512 
	C121.704018,151.282227 128.454834,150.610825 135.655502,149.850372 
M82.977737,169.348175 
	C82.991386,168.620956 83.005028,167.893738 83.836334,166.972061 
	C84.643227,166.829758 85.450127,166.687454 86.508713,166.821579 
	C86.406471,167.137680 86.304237,167.453781 86.202003,167.769897 
	C86.243126,167.378738 86.284248,166.987595 85.930962,166.191055 
	C86.136070,165.489975 86.720360,164.608536 86.486267,164.116348 
	C84.623131,160.199081 81.572212,161.361267 78.177399,161.770447 
	C73.273346,162.361557 72.008263,163.681290 73.989426,169.137924 
	C74.874863,171.300079 75.547714,175.162643 76.685677,175.304916 
	C80.071304,175.728195 83.639801,174.688950 87.136833,174.221222 
	C87.601204,172.976334 88.065582,171.731445 88.529953,170.486557 
	C83.323471,175.106796 83.571678,171.997787 82.977737,169.348175 
M140.923721,162.207275 
	C139.670166,160.279816 138.416626,158.352341 137.163071,156.424881 
	C136.703369,156.614853 136.243652,156.804840 135.783951,156.994812 
	C136.205261,160.073334 136.626556,163.151855 137.047867,166.230377 
	C137.319672,166.222885 137.591461,166.215393 137.863266,166.207901 
	C138.021774,164.919373 138.180267,163.630859 138.410126,161.762299 
	C139.742386,163.548889 140.667435,164.789383 142.275330,166.945587 
	C142.973145,164.218414 143.421661,162.465500 143.881409,160.668716 
	C143.474243,160.742828 143.041107,160.690750 142.848175,160.881561 
	C142.288376,161.435165 141.824951,162.086227 140.923721,162.207275 
M104.347160,160.082153 
	C102.058754,162.986908 99.708443,165.877930 101.880577,169.854782 
	C103.135765,168.625259 104.075195,167.334366 105.330414,166.546738 
	C108.755569,164.397537 108.768326,163.005600 104.347160,160.082153 
M110.878273,165.090027 
	C110.562790,166.205688 110.247314,167.321365 109.931831,168.437027 
	C111.859444,168.587234 113.787056,168.737457 115.834061,168.896973 
	C114.808037,160.892853 114.575874,160.696060 109.216080,163.512207 
	C110.967537,163.512207 112.067703,163.512207 113.167870,163.512207 
	C113.203194,163.735809 113.238525,163.959396 113.273849,164.182999 
	C112.713455,164.411133 112.153061,164.639267 110.878273,165.090027 
z"/>
<path fill="#EFF1F5" opacity="1.000000" stroke="none" 
	d="
M496.004578,299.003052 
	C490.901855,299.998871 485.837402,301.315582 480.689178,301.929779 
	C465.726990,303.714783 450.735931,305.263428 435.747253,306.819000 
	C421.740845,308.272614 407.716217,309.551910 393.712128,311.026764 
	C379.550140,312.518311 365.408295,314.199890 351.248688,315.714996 
	C340.376526,316.878357 329.486176,317.871246 318.611938,319.015839 
	C307.578064,320.177155 296.557220,321.461670 285.524750,322.636597 
	C274.653076,323.794342 263.770264,324.848236 252.898972,326.009491 
	C238.245041,327.574860 223.602081,329.243317 208.945618,330.784027 
	C198.070709,331.927185 187.175568,332.877991 176.300690,334.021515 
	C161.973206,335.528107 147.661606,337.185638 133.334106,338.691956 
	C121.022079,339.986328 108.697311,341.159485 96.266785,341.234222 
	C106.386345,340.153931 116.508316,339.095581 126.624825,337.987335 
	C137.649246,336.779663 148.663727,335.480164 159.691528,334.304993 
	C170.561172,333.146637 181.446457,332.135376 192.316910,330.984253 
	C206.803146,329.450256 221.278091,327.809235 235.764725,326.278992 
	C246.635773,325.130676 257.521881,324.125153 268.393463,322.981750 
	C279.423828,321.821655 290.442291,320.548798 301.470245,319.365204 
	C312.173004,318.216522 322.883850,317.143372 333.586243,315.991425 
	C345.106567,314.751465 356.615723,313.406677 368.139771,312.203522 
	C379.012604,311.068359 389.905121,310.121246 400.776947,308.976959 
	C415.099335,307.469482 429.406036,305.813568 443.726898,304.291046 
	C454.596954,303.135437 465.479767,302.100739 476.354492,300.988403 
	C482.612640,300.348297 488.865906,299.660858 495.560669,298.997375 
	C496.000000,299.000000 496.004578,299.003052 496.004578,299.003052 
z"/>
<path fill="#EFF1F5" opacity="1.000000" stroke="none" 
	d="
M867.917603,260.997742 
	C856.100281,262.230499 844.745239,263.488129 833.383484,264.681580 
	C822.510742,265.823639 811.627869,266.868286 800.755371,268.012146 
	C789.722107,269.172943 778.698181,270.421997 767.666382,271.596893 
	C756.796570,272.754517 745.918762,273.836426 735.050598,275.008698 
	C723.693115,276.233826 712.347412,277.567383 700.988464,278.778625 
	C690.446228,279.902802 679.889526,280.890625 669.346313,282.005981 
	C654.527649,283.573639 639.719910,285.244812 624.899353,286.793396 
	C614.024963,287.929657 603.130920,288.877960 592.257446,290.022156 
	C577.931885,291.529602 563.622620,293.191284 549.297485,294.703033 
	C537.644104,295.932831 525.977722,297.039612 514.317139,298.200928 
	C514.277954,297.794037 514.238708,297.387146 514.199524,296.980255 
	C646.407349,282.989655 778.615173,268.999023 910.822937,255.008408 
	C910.873718,255.432663 910.924500,255.856918 910.975281,256.281158 
	C896.775818,257.852295 882.576355,259.423401 867.917603,260.997742 
z"/>
<path fill="#393542" opacity="1.000000" stroke="none" 
	d="
M130.744476,374.202087 
	C131.883469,371.631378 131.883469,371.631378 135.428070,374.252258 
	C134.847092,373.795776 134.266129,373.339294 133.515945,372.749847 
	C132.630356,375.247955 131.758850,377.706390 130.442932,381.418396 
	C128.285400,377.724213 126.856056,375.276825 125.018425,372.130341 
	C124.884422,374.108185 125.224495,375.555054 124.651436,376.271271 
	C123.229637,378.048187 121.450813,380.653412 119.702774,380.743652 
	C117.937065,380.834778 114.941879,378.589111 114.479858,376.840240 
	C113.941391,374.801971 114.883842,371.232452 116.454880,370.115662 
	C117.866035,369.112518 121.011574,370.465027 123.367195,370.909882 
	C124.556442,371.134460 125.690697,371.650269 127.667641,372.305420 
	C128.131927,372.656555 129.403961,373.618652 130.744476,374.202087 
M117.845436,371.249115 
	C117.599701,373.436401 117.195717,375.627747 117.252113,377.807220 
	C117.262436,378.206024 119.687057,379.155334 120.063164,378.815796 
	C121.153275,377.831787 122.699432,375.965149 122.366692,375.094482 
	C121.757538,373.500427 119.928329,372.372620 117.845436,371.249115 
z"/>
<path fill="#201F2E" opacity="1.000000" stroke="none" 
	d="
M93.958801,221.116913 
	C93.710129,221.101486 93.461456,221.086044 92.738449,221.208710 
	C92.141418,221.483459 92.096153,221.642441 92.128319,221.823746 
	C89.023964,223.511902 85.919609,225.200073 81.852531,227.411774 
	C81.137077,221.141754 80.606277,216.489899 80.077141,211.852692 
	C88.207130,209.543198 90.744461,210.484207 93.765160,216.960907 
	C94.204414,218.577881 94.081604,219.847397 93.958801,221.116913 
M84.247734,221.954208 
	C85.939400,221.732269 88.720238,222.007248 89.095512,221.184708 
	C89.871651,219.483536 90.022224,216.854126 89.185097,215.260468 
	C88.499069,213.954483 86.010170,213.595520 83.380096,212.383362 
	C83.728416,216.286545 83.944611,218.709091 84.247734,221.954208 
z"/>
<path fill="#EAEBEB" opacity="1.000000" stroke="none" 
	d="
M699.141357,100.603142 
	C698.588135,102.556252 698.034912,104.509354 697.343628,106.174889 
	C697.205627,105.887321 697.214722,105.605774 697.214722,105.605774 
	C697.214722,105.605774 697.003967,106.005196 697.003967,106.005203 
	C695.833191,104.995979 694.662354,103.986748 693.135071,102.670189 
	C692.601501,103.372604 692.027893,104.127800 691.469421,104.863060 
	C688.423706,101.610977 686.604004,101.902580 683.832458,105.483871 
	C682.410339,107.321381 680.854248,110.886200 677.181519,106.899323 
	C676.589478,105.974113 676.392029,105.469757 676.194580,104.965408 
	C678.051331,103.746651 678.876038,99.587494 681.725464,101.899155 
	C686.169495,100.587616 690.262817,99.379601 693.831177,98.326492 
	C695.623474,98.722359 697.220093,99.074989 699.068848,99.598511 
	C699.309570,100.057755 699.249695,100.335670 699.141357,100.603142 
z"/>
<path fill="#222535" opacity="1.000000" stroke="none" 
	d="
M140.993088,213.613174 
	C139.576675,219.019348 135.997345,221.246246 129.747513,220.113861 
	C129.264832,216.148254 128.696106,211.475708 128.127380,206.803162 
	C128.548889,206.507126 128.970413,206.211075 129.391922,205.915039 
	C130.349197,207.079910 131.306473,208.244797 132.600296,209.819199 
	C136.349136,206.793457 138.077637,210.616516 140.711151,212.849823 
	C141.052063,213.021378 141.037567,213.318008 140.993088,213.613174 
M136.859100,215.250473 
	C135.995407,214.026443 135.131699,212.802429 134.267990,211.578400 
	C133.561050,212.175385 132.269852,212.768250 132.265594,213.370224 
	C132.255966,214.733658 132.880676,216.101608 133.247437,217.467712 
	C134.412582,216.992813 135.577744,216.517929 136.859100,215.250473 
z"/>
<path fill="#2C2B36" opacity="1.000000" stroke="none" 
	d="
M94.086716,221.453384 
	C94.081604,219.847397 94.204414,218.577881 94.073151,217.107483 
	C95.053040,213.293472 98.508575,211.448120 100.999947,213.240875 
	C103.491547,215.033737 104.313896,219.146393 106.387527,223.277130 
	C101.081360,222.999603 97.279480,226.188568 94.086716,221.453384 
z"/>
<path fill="#201F2E" opacity="1.000000" stroke="none" 
	d="
M161.059128,217.307098 
	C159.780060,217.502106 158.889908,217.812271 157.986328,217.858261 
	C156.864883,217.915314 155.311432,218.182037 154.704132,217.585251 
	C153.814453,216.711014 152.807739,214.637833 153.237701,213.974472 
	C154.817749,211.536804 151.502396,205.721909 158.236481,206.695526 
	C161.492706,207.166321 162.472076,208.872528 162.268188,211.707916 
	C162.133301,213.583725 161.726929,215.440018 161.059128,217.307098 
z"/>
<path fill="#222535" opacity="1.000000" stroke="none" 
	d="
M126.212891,211.976303 
	C126.880104,215.048660 127.344704,217.781723 127.809303,220.514786 
	C127.263115,220.778946 126.716934,221.043106 126.170746,221.307251 
	C125.520790,220.048157 124.897392,218.774445 124.214050,217.533722 
	C123.394859,216.046371 122.524536,214.587158 121.676346,213.115768 
	C121.156738,214.670609 120.460175,216.193771 120.174370,217.790466 
	C119.951828,219.033768 120.240646,220.368622 120.305412,221.730209 
	C116.784203,220.928268 115.094200,210.722076 118.069305,206.594147 
	C118.685349,208.349731 119.169205,209.728622 119.398407,210.381790 
	C121.864922,210.850037 123.937599,211.243530 126.212891,211.976303 
z"/>
<path fill="#C4C7C5" opacity="1.000000" stroke="none" 
	d="
M132.837296,453.469421 
	C137.235504,452.445587 141.372635,451.012604 145.628357,450.203125 
	C146.477142,450.041687 147.779083,452.262756 148.872086,453.385223 
	C147.887726,454.225525 146.983917,455.658417 145.905273,455.805023 
	C140.853912,456.491577 135.754425,456.823883 130.319763,457.314545 
	C130.074478,456.416748 129.425293,455.036987 129.419708,453.654633 
	C129.416229,452.794769 130.386887,451.931000 130.920349,451.069000 
	C131.486206,451.805817 132.052048,452.542603 132.837296,453.469421 
z"/>
<path fill="#393542" opacity="1.000000" stroke="none" 
	d="
M148.043457,307.312805 
	C147.721100,314.892181 145.718002,316.168671 139.210632,313.364014 
	C139.432632,312.181213 140.206863,310.720795 139.778473,309.856445 
	C138.279724,306.832489 138.181732,304.298645 141.719559,303.081177 
	C145.030121,301.941925 147.039780,303.752777 148.043457,307.312805 
z"/>
<path fill="#1E1929" opacity="1.000000" stroke="none" 
	d="
M171.950592,207.153610 
	C173.681244,206.163040 175.411896,205.172470 177.952423,203.718353 
	C177.926834,204.246414 177.749756,203.341812 178.064377,202.666168 
	C178.391281,201.964218 179.193634,201.483658 179.788071,200.906281 
	C180.212051,201.507782 180.931564,202.072540 181.011688,202.716797 
	C181.501450,206.655731 181.846191,210.612717 182.237869,214.549759 
	C172.418655,216.449265 171.496277,215.932617 171.490845,208.032867 
	C171.998688,207.495712 172.023956,207.332336 171.950592,207.153610 
M174.595825,208.109497 
	C175.258621,209.950073 175.921402,211.790634 176.584198,213.631210 
	C177.389465,212.592133 178.817383,211.584625 178.871964,210.507507 
	C178.990021,208.177795 178.071228,206.245453 174.595825,208.109497 
z"/>
<path fill="#2F3442" opacity="1.000000" stroke="none" 
	d="
M112.982208,306.134216 
	C114.132660,306.886139 114.958069,307.581635 116.695938,309.045959 
	C114.336792,309.045959 113.120308,309.045959 112.121590,309.045959 
	C113.653397,311.350311 115.245865,313.286896 116.158524,315.503418 
	C116.342537,315.950348 113.958199,318.273743 112.743317,318.286072 
	C110.911949,318.304657 109.067657,317.050446 107.228859,316.337250 
	C107.391747,315.882507 107.554634,315.427795 107.717522,314.973053 
	C109.096626,315.101898 110.475739,315.230774 111.702278,315.345367 
	C110.090469,313.041473 108.642159,310.971313 107.193848,308.901123 
	C109.014954,307.960022 110.836052,307.018921 112.982208,306.134216 
z"/>
<path fill="#2B2C3B" opacity="1.000000" stroke="none" 
	d="
M118.451805,314.177002 
	C118.117401,312.336945 117.385445,310.490570 118.005310,309.447510 
	C119.043892,307.699829 120.746307,305.659882 122.532944,305.220154 
	C124.690742,304.689056 126.848503,305.922760 125.134079,309.018524 
	C125.029350,309.207703 125.795715,309.764832 125.783783,310.138885 
	C125.719429,312.154541 126.312836,314.953857 125.234512,316.016113 
	C122.973328,318.243561 120.358925,317.318573 118.451805,314.177002 
z"/>
<path fill="#2C2B36" opacity="1.000000" stroke="none" 
	d="
M173.240387,305.400330 
	C172.274948,307.833405 171.683716,310.389984 170.078720,311.751373 
	C169.249588,312.454651 166.620361,311.035675 164.804474,310.575562 
	C164.904922,310.105347 165.005386,309.635162 165.105835,309.164948 
	C166.871033,309.164948 168.636215,309.164948 170.401413,309.164948 
	C170.434601,308.872040 170.467804,308.579163 170.501007,308.286255 
	C170.162994,308.094910 169.761246,307.674103 169.496750,307.747528 
	C166.763977,308.506592 164.511337,307.652618 164.347931,304.859863 
	C164.264603,303.435608 166.139145,300.698761 167.185211,300.670807 
	C169.024216,300.621704 170.951782,302.119476 172.735138,303.154114 
	C173.120895,303.377869 173.053253,304.383148 173.240387,305.400330 
z"/>
<path fill="#2B2C3B" opacity="1.000000" stroke="none" 
	d="
M162.443634,309.441101 
	C159.522995,314.204071 157.624756,314.391571 153.582428,309.973419 
	C156.091766,309.973419 158.009720,309.973419 160.711731,309.973419 
	C159.705978,308.838318 159.412659,308.397766 159.333237,308.433502 
	C156.560074,309.678955 154.100220,309.380035 153.798111,306.028198 
	C153.671509,304.623566 155.193787,302.332153 156.554947,301.688477 
	C159.212006,300.432098 161.442139,301.755463 162.209137,304.694489 
	C162.572495,306.086792 162.460312,307.603149 162.443634,309.441101 
z"/>
<path fill="#2B2C3B" opacity="1.000000" stroke="none" 
	d="
M115.505142,220.494568 
	C113.412430,221.552933 111.537109,222.712585 109.595512,222.836884 
	C108.470802,222.908890 105.184250,222.458923 107.703194,219.514954 
	C107.920303,219.261215 107.305893,218.408661 107.303024,217.833145 
	C107.294029,216.026291 107.057098,212.760117 107.506073,212.656830 
	C109.808235,212.127197 112.297691,212.411697 114.721703,212.411697 
	C114.697624,212.999710 114.673553,213.587723 114.649475,214.175735 
	C113.643196,214.175735 112.635437,214.142181 111.631088,214.186172 
	C110.800339,214.222565 109.973595,214.350494 108.359863,214.520691 
	C111.011581,217.072342 116.497986,214.761841 115.505142,220.494568 
z"/>
<path fill="#201F2E" opacity="1.000000" stroke="none" 
	d="
M140.955322,214.028473 
	C141.037567,213.318008 141.052063,213.021378 141.015472,212.501617 
	C141.432632,208.636688 144.138458,207.122971 146.959000,208.152664 
	C148.891724,208.858231 151.017242,211.678940 151.195923,213.717224 
	C151.341217,215.374771 149.050964,218.249222 147.257370,218.854095 
	C144.017303,219.946793 141.496841,218.145416 140.955322,214.028473 
M148.000107,211.427155 
	C146.806335,211.293213 145.612579,211.159271 144.418808,211.025314 
	C144.391220,212.587418 144.153625,214.191559 144.453262,215.688141 
	C144.554138,216.191895 146.019928,216.422363 146.861877,216.777725 
	C147.323914,215.230972 147.785950,213.684219 148.000107,211.427155 
z"/>
<path fill="#A9B0BE" opacity="1.000000" stroke="none" 
	d="
M101.944672,239.063873 
	C100.455261,239.584976 98.981461,240.353424 97.465210,240.449127 
	C97.097168,240.472366 95.893440,237.691345 96.287270,237.225555 
	C97.167381,236.184586 98.754425,235.430710 100.156830,235.206680 
	C103.063057,234.742416 106.036591,234.699554 109.116821,235.646439 
	C110.374931,234.235321 111.633034,232.824188 112.891136,231.413071 
	C113.302818,231.669876 113.714500,231.926682 114.126183,232.183502 
	C112.659836,234.694992 111.193481,237.206497 109.440208,240.209442 
	C108.124123,238.444733 107.000237,236.937729 105.634476,235.106430 
	C104.503242,236.631302 103.563736,237.897736 102.148499,238.770325 
	C100.592644,238.376480 99.512520,238.376480 98.432404,238.376480 
	C98.448311,238.755768 98.464226,239.135040 98.480133,239.514328 
	C99.634979,239.364182 100.789825,239.214020 101.944672,239.063873 
z"/>
<path fill="#2B2C3B" opacity="1.000000" stroke="none" 
	d="
M137.199081,313.527405 
	C134.267166,316.879364 131.584930,316.971893 128.462372,313.210632 
	C130.970795,313.210632 132.900406,313.210632 134.830017,313.210632 
	C134.923874,312.886871 135.017746,312.563080 135.111603,312.239319 
	C134.015854,311.468018 132.920105,310.696686 131.804306,309.911255 
	C132.558823,308.908600 133.300232,307.923370 134.041626,306.938110 
	C133.864410,306.652405 133.687195,306.366669 133.509995,306.080963 
	C132.002029,306.537323 130.494080,306.993713 128.986130,307.450104 
	C128.777390,306.988617 128.568649,306.527100 128.359909,306.065613 
	C130.124374,305.363312 131.926682,304.077454 133.638428,304.188385 
	C134.590103,304.250092 135.628494,306.548218 136.196167,308.006439 
	C136.829788,309.634064 136.974121,311.452179 137.199081,313.527405 
z"/>
<path fill="#2C2B36" opacity="1.000000" stroke="none" 
	d="
M539.370850,267.323486 
	C539.912659,265.871582 540.197571,264.696167 540.482544,263.520752 
	C538.832275,263.925354 537.182007,264.329987 535.531677,264.734589 
	C535.274475,264.438721 535.017273,264.142853 534.760071,263.846985 
	C536.099792,262.885406 537.330444,261.460663 538.814392,261.111115 
	C539.968628,260.839203 542.603577,261.981567 542.578857,262.367432 
	C542.418457,264.876221 541.710632,267.350006 541.108887,270.178986 
	C541.637512,270.276031 542.921021,270.511597 544.204529,270.747192 
	C544.230286,271.225067 544.256104,271.702942 544.281860,272.180817 
	C541.626221,272.516846 538.970642,272.852875 536.315002,273.188934 
	C536.087524,272.807648 535.860046,272.426361 535.632629,272.045074 
	C536.793030,270.563385 537.953491,269.081696 539.370850,267.323486 
z"/>
<path fill="#2B2C3B" opacity="1.000000" stroke="none" 
	d="
M171.076508,368.986023 
	C172.409882,369.132843 173.743256,369.279602 175.466064,369.469269 
	C175.731201,368.613129 176.136215,367.305328 176.926819,364.752472 
	C178.391922,366.988525 179.268616,368.326538 180.360260,369.992615 
	C180.948364,368.279053 181.489899,366.701172 182.031433,365.123260 
	C182.472778,365.236969 182.914108,365.350677 183.355453,365.464386 
	C182.919113,368.354584 182.482788,371.244781 182.046463,374.134979 
	C181.645462,374.272614 181.244446,374.410248 180.843430,374.547852 
	C179.881393,373.271088 178.919357,371.994324 178.034286,370.819702 
	C176.912674,371.370331 175.817032,371.908234 175.509811,372.059082 
	C173.837234,370.484467 172.567352,369.288971 171.168640,368.539673 
	C171.039825,368.985840 171.076508,368.986023 171.076508,368.986023 
z"/>
<path fill="#393542" opacity="1.000000" stroke="none" 
	d="
M155.848419,368.269043 
	C156.751190,368.465332 157.976456,369.043549 157.920090,369.226135 
	C157.131561,371.780334 156.190018,374.290009 155.131180,376.743805 
	C155.102188,376.811005 152.919418,376.416412 152.487976,375.752075 
	C151.333466,373.974182 150.585785,371.932068 149.561996,369.751007 
	C147.907776,370.051788 146.216690,370.359283 144.525589,370.666779 
	C144.579407,370.855682 144.633224,371.044586 144.687042,371.233490 
	C146.816864,370.550629 148.946671,369.867767 151.383881,369.086365 
	C152.028214,370.232971 152.806702,371.618317 153.921494,373.602173 
	C154.562027,371.612946 155.068512,370.040009 155.848419,368.269043 
z"/>
<path fill="#9DA4B1" opacity="1.000000" stroke="none" 
	d="
M699.457642,100.758148 
	C699.249695,100.335670 699.309570,100.057755 699.339478,99.555374 
	C700.988953,99.545074 702.648376,100.033516 704.243164,99.874435 
	C705.920715,99.707092 707.536499,98.920311 709.800659,98.208946 
	C709.986328,101.592400 710.134583,104.294189 710.365356,108.500862 
	C706.130188,105.466766 702.952087,103.189964 699.457642,100.758148 
z"/>
<path fill="#8C92A4" opacity="1.000000" stroke="none" 
	d="
M440.640747,134.004852 
	C434.175323,133.198883 438.299011,128.339905 436.562134,125.788368 
	C436.800415,125.379631 437.038696,124.970894 437.276947,124.562157 
	C439.118896,125.279503 442.428833,125.851395 442.517120,126.742493 
	C442.747406,129.066833 445.983673,132.603027 440.640747,134.004852 
z"/>
<path fill="#979FAD" opacity="1.000000" stroke="none" 
	d="
M467.064575,123.119217 
	C468.353516,125.054108 469.463776,127.309105 470.574036,129.564102 
	C470.199982,130.021469 469.825897,130.478821 469.451843,130.936172 
	C466.451111,130.679031 463.450409,130.421890 459.553894,130.087982 
	C462.515991,127.401955 464.700958,125.420639 467.064575,123.119217 
z"/>
<path fill="#2C2B36" opacity="1.000000" stroke="none" 
	d="
M171.588989,207.266678 
	C172.023956,207.332336 171.998688,207.495712 171.759567,207.699387 
	C167.425903,207.611298 166.848969,209.920181 167.503876,213.463226 
	C167.703583,214.543594 166.804001,215.827148 166.407867,217.017654 
	C165.743942,215.926300 164.718109,214.904556 164.491989,213.729004 
	C164.031372,211.334335 164.001984,208.856735 163.706390,205.368393 
	C166.599335,206.142059 168.913376,206.760895 171.588989,207.266678 
z"/>
<path fill="#8C92A4" opacity="1.000000" stroke="none" 
	d="
M285.722290,141.191711 
	C289.563477,141.217987 292.788452,145.825821 291.022644,148.430206 
	C290.375763,149.384323 288.536865,149.956757 287.270905,149.910202 
	C286.467194,149.880646 285.158356,148.451691 285.057007,147.541138 
	C284.830505,145.505157 285.217712,143.400894 285.722290,141.191711 
z"/>
<path fill="#2B2C3B" opacity="1.000000" stroke="none" 
	d="
M171.033478,368.974609 
	C169.004730,370.202393 166.982346,371.441437 163.783203,373.401428 
	C166.590530,373.401428 168.230850,373.401428 169.830215,373.401428 
	C167.847839,377.295197 166.055603,377.194061 161.644516,372.680511 
	C161.257233,373.640808 160.912216,374.496307 160.567215,375.351807 
	C160.715912,375.406677 160.864624,375.461578 161.013336,375.516449 
	C161.655716,373.508820 162.298096,371.501160 163.153275,368.828430 
	C165.640930,369.279846 168.219452,369.747742 170.937256,369.600830 
	C171.076508,368.986023 171.039825,368.985840 171.033478,368.974609 
z"/>
<path fill="#DEE1DE" opacity="1.000000" stroke="none" 
	d="
M535.002075,248.001663 
	C531.579285,247.722778 528.156494,247.443893 524.733704,247.165009 
	C524.745178,246.697922 524.756714,246.230850 524.768250,245.763779 
	C530.379639,244.909073 535.718384,241.878418 541.872437,244.596481 
	C540.474487,245.167404 539.076599,245.738327 537.073975,246.237350 
	C535.980225,246.777512 535.491150,247.389587 535.002075,248.001663 
z"/>
<path fill="#C4C7C5" opacity="1.000000" stroke="none" 
	d="
M128.544647,404.226501 
	C129.464340,403.097504 130.114014,402.091095 130.763687,401.084656 
	C131.967377,402.446503 133.171051,403.808350 135.243164,406.152710 
	C131.321701,406.995239 128.491531,407.815094 125.621201,407.995300 
	C125.182510,408.022827 124.340706,405.122742 124.129387,403.518188 
	C124.047592,402.897095 125.199287,402.113556 125.789040,401.404022 
	C126.617561,402.385712 127.446091,403.367371 128.544647,404.226501 
z"/>
<path fill="#DEE1DE" opacity="1.000000" stroke="none" 
	d="
M229.890015,153.995758 
	C228.752350,154.980438 227.614685,155.965103 226.236206,157.158218 
	C225.264816,155.986069 224.385498,154.925003 223.460373,153.808685 
	C222.473785,154.513992 221.560486,155.166901 220.280426,155.874298 
	C219.913635,155.928772 219.707336,155.725693 219.779724,155.335876 
	C219.852692,153.331070 219.853256,151.716080 219.911957,150.055740 
	C219.970093,150.010406 220.082809,149.915421 220.082809,149.915421 
	C223.198547,150.140076 226.314301,150.364716 229.707611,150.869354 
	C229.985184,151.149323 230.175217,151.259186 230.097931,151.553589 
	C230.086395,152.444244 230.152130,153.040466 230.129074,153.720230 
	C230.040283,153.803757 229.890015,153.995758 229.890015,153.995758 
z"/>
<path fill="#979FAD" opacity="1.000000" stroke="none" 
	d="
M894.693054,209.616211 
	C892.188721,210.201431 889.560486,211.511047 887.224609,211.111465 
	C885.723511,210.854675 884.652588,208.082993 883.910278,205.874359 
	C887.801453,206.085144 891.841919,198.651688 894.140747,206.876953 
	C891.193115,207.357727 888.625244,207.540222 886.057373,207.722733 
	C886.111267,208.353897 886.165161,208.985062 886.218994,209.616226 
	C889.043701,209.616226 891.868347,209.616226 894.693054,209.616211 
z"/>
<path fill="#979FAD" opacity="1.000000" stroke="none" 
	d="
M572.582397,118.786346 
	C570.472717,118.955986 568.441223,118.732742 566.409790,118.509491 
	C567.577454,115.930412 568.745117,113.351341 569.912781,110.772270 
	C570.536926,110.948303 571.161072,111.124329 571.785217,111.300354 
	C572.076965,113.664726 572.368774,116.029099 572.582397,118.786346 
z"/>
<path fill="#9297A8" opacity="1.000000" stroke="none" 
	d="
M330.322540,145.452759 
	C326.309448,141.955658 326.342255,141.857574 333.408691,136.326660 
	C332.895813,139.836670 337.196991,144.001160 330.322540,145.452759 
z"/>
<path fill="#C4C7C5" opacity="1.000000" stroke="none" 
	d="
M908.743042,536.204407 
	C913.030884,536.180420 912.201233,539.141479 911.578857,541.085144 
	C910.817322,543.463318 909.410095,543.519531 907.728394,541.234802 
	C907.255615,540.592468 904.804443,541.406433 903.261047,541.552368 
	C903.025391,538.736633 904.136353,537.593384 908.743042,536.204407 
z"/>
<path fill="#77675D" opacity="1.000000" stroke="none" 
	d="
M243.319733,149.204391 
	C245.365631,150.131775 249.115997,147.503906 249.242020,144.965363 
	C247.964676,148.092239 246.687317,151.219101 245.039322,155.253281 
	C243.673111,153.095398 242.612106,151.419617 241.247650,149.264526 
	C239.977295,149.875580 238.641510,150.518127 237.448807,151.091827 
	C237.161362,147.671524 237.677246,147.431107 243.319733,149.204391 
z"/>
<path fill="#9297A8" opacity="1.000000" stroke="none" 
	d="
M628.072571,109.282013 
	C629.903442,107.604530 631.648010,106.302910 633.710327,104.764160 
	C634.074707,107.559021 634.370850,109.830055 634.664734,112.084572 
	C630.030518,114.793976 629.371277,114.549934 628.072571,109.282013 
z"/>
<path fill="#9297A8" opacity="1.000000" stroke="none" 
	d="
M304.923767,148.040100 
	C299.621948,146.968674 302.808319,142.958588 301.350372,140.646118 
	C301.677551,140.321930 302.004761,139.997742 302.331970,139.673569 
	C304.272888,141.193604 306.326050,142.607407 308.001587,144.378510 
	C308.194275,144.582169 306.280914,146.778198 304.923767,148.040100 
z"/>
<path fill="#9297A8" opacity="1.000000" stroke="none" 
	d="
M357.542816,136.467346 
	C359.463440,132.260391 361.746490,131.851776 365.392853,135.666611 
	C363.432831,135.325760 362.073700,134.654266 361.414062,135.076218 
	C360.412170,135.717072 359.895752,137.116867 359.173096,138.194290 
	C360.340851,138.934021 361.487518,140.238693 362.681244,140.283340 
	C364.552795,140.353333 366.456146,139.572510 368.396088,139.769135 
	C366.198059,140.547028 364.043701,141.781250 361.791840,141.996704 
	C358.341858,142.326813 357.258118,139.942841 357.542816,136.467346 
z"/>
<path fill="#979FAD" opacity="1.000000" stroke="none" 
	d="
M517.869202,120.056412 
	C517.827148,122.103783 517.715515,123.931282 517.069214,125.544601 
	C516.958008,125.822250 514.082703,125.636307 513.370972,124.855865 
	C512.598145,124.008560 512.283813,121.335724 512.784546,121.007545 
	C514.101746,120.144241 515.970032,120.121597 517.869202,120.056412 
z"/>
<path fill="#8C92A4" opacity="1.000000" stroke="none" 
	d="
M616.580688,106.300644 
	C618.718445,107.128105 621.037720,107.757751 622.098816,109.270164 
	C622.753296,110.202911 621.895508,112.791504 620.939941,114.044319 
	C620.329102,114.845200 617.831543,115.211960 617.015686,114.620468 
	C615.732666,113.690308 614.673401,111.859772 614.437866,110.274033 
	C614.266846,109.122047 615.579834,107.749634 616.580688,106.300644 
M617.648438,113.514053 
	C620.577026,113.604118 621.511414,111.932114 620.647888,109.484962 
	C620.361877,108.674667 618.690552,108.353279 617.652588,107.808357 
	C617.442627,109.564201 617.232605,111.320038 617.648438,113.514053 
z"/>
<path fill="#8C92A4" opacity="1.000000" stroke="none" 
	d="
M549.152344,120.108109 
	C548.749939,120.845230 548.491699,121.237015 548.233398,121.628799 
	C547.803711,119.354279 547.155823,117.084557 547.105713,114.801697 
	C547.093933,114.265228 549.158569,113.160004 550.162598,113.270920 
	C551.174561,113.382713 552.055359,114.682014 552.993591,115.461014 
	C551.761230,116.894920 550.528809,118.328842 549.152344,120.108109 
z"/>
<path fill="#9DA4B1" opacity="1.000000" stroke="none" 
	d="
M398.468414,134.294174 
	C397.554443,136.041855 396.507141,137.438644 395.459839,138.835449 
	C394.355316,137.987045 392.662964,137.326599 392.314423,136.236496 
	C391.977448,135.182632 393.061249,132.566696 393.457489,132.579651 
	C395.096466,132.633194 396.711365,133.423569 398.468414,134.294174 
z"/>
<path fill="#9297A8" opacity="1.000000" stroke="none" 
	d="
M474.731140,254.400574 
	C473.146881,254.923233 470.670532,255.526947 470.595093,255.307053 
	C469.882996,253.231201 469.385651,251.022064 469.305817,248.833878 
	C469.287476,248.331421 471.110168,247.761856 472.085632,247.223175 
	C472.440765,248.008560 472.818298,248.784714 473.146179,249.581314 
	C473.763550,251.081161 474.352264,252.592804 474.731140,254.400574 
z"/>
<path fill="#9297A8" opacity="1.000000" stroke="none" 
	d="
M499.158875,127.575836 
	C497.014740,126.813065 494.677673,126.257202 493.551727,124.778900 
	C492.869873,123.883675 493.522614,120.909477 494.557220,120.047897 
	C495.754456,119.050896 498.029327,119.347923 499.674377,119.106873 
	C497.784637,121.025040 496.396790,122.433746 495.008911,123.842453 
	C496.627380,124.677719 498.245819,125.512985 500.126984,126.483818 
	C500.302124,126.238800 499.889252,126.816399 499.158875,127.575836 
z"/>
<path fill="#9297A8" opacity="1.000000" stroke="none" 
	d="
M675.880493,104.776390 
	C676.392029,105.469757 676.589478,105.974113 676.882324,106.732796 
	C675.156311,109.639000 673.042053,109.923477 669.659302,107.443924 
	C671.890869,107.443924 673.175476,107.443924 674.551453,107.443924 
	C674.557495,104.190598 667.370911,105.828880 670.691833,101.219170 
	C671.374207,100.271919 673.796631,100.578247 675.416992,100.306740 
	C675.466492,100.823677 675.515930,101.340614 675.565430,101.857559 
	C674.431946,101.956268 673.298462,102.054985 672.165039,102.153702 
	C672.102661,102.433907 672.040283,102.714111 671.977905,102.994316 
	C673.174011,103.525337 674.370178,104.056358 675.880493,104.776390 
z"/>
<path fill="#2B2C3B" opacity="1.000000" stroke="none" 
	d="
M528.771240,270.772583 
	C527.708984,269.826508 526.684143,269.226440 525.573303,268.576050 
	C526.556458,267.267029 527.671387,265.782593 528.849548,264.214020 
	C530.015503,265.244904 531.392456,266.462402 533.269226,268.121704 
	C531.938293,269.015900 530.373413,270.067230 528.771240,270.772583 
z"/>
<path fill="#9DA4B1" opacity="1.000000" stroke="none" 
	d="
M595.610107,117.507484 
	C591.014404,118.402802 593.839172,114.151642 592.108704,113.121140 
	C592.766785,112.333389 593.286255,111.225349 594.127625,110.861252 
	C594.777222,110.580154 595.830627,111.232086 596.704468,111.469193 
	C595.260132,113.285072 600.072815,115.926414 595.610107,117.507484 
z"/>
<path fill="#C4C7C5" opacity="1.000000" stroke="none" 
	d="
M618.015503,571.655640 
	C615.718140,571.709961 613.494141,571.453735 611.270203,571.197510 
	C612.016907,569.942566 612.514832,567.970642 613.570068,567.604431 
	C615.070862,567.083435 616.981262,567.742310 618.948120,567.917725 
	C618.637207,569.158020 618.363098,570.251526 618.015503,571.655640 
z"/>
<path fill="#9297A8" opacity="1.000000" stroke="none" 
	d="
M638.892639,105.998489 
	C640.070801,107.721634 641.019592,109.378532 641.482666,111.161568 
	C641.581238,111.541115 639.703674,113.051605 639.101440,112.864769 
	C637.907288,112.494293 636.004211,111.143517 636.114014,110.484581 
	C636.379089,108.894318 637.634033,107.469055 638.892639,105.998489 
M638.738525,111.070869 
	C639.261597,110.986481 639.784607,110.902084 640.307678,110.817696 
	C640.262756,110.598137 640.217834,110.378578 640.172913,110.159019 
	C639.566101,110.309532 638.959351,110.460045 638.738525,111.070869 
z"/>
<path fill="#979FAD" opacity="1.000000" stroke="none" 
	d="
M449.334473,131.087982 
	C450.143707,129.134430 451.024170,127.525314 451.904633,125.916206 
	C452.870514,126.608353 454.401398,127.136101 454.662506,128.033340 
	C455.006561,129.215668 454.625366,131.691238 454.075836,131.840256 
	C452.660126,132.224167 450.980072,131.633621 449.334473,131.087982 
z"/>
<path fill="#979FAD" opacity="1.000000" stroke="none" 
	d="
M412.086456,133.897308 
	C411.113464,134.118576 410.483063,134.241257 408.834381,134.562103 
	C410.742767,135.078033 411.687439,135.333420 413.969696,135.950424 
	C411.739807,136.545074 410.291565,137.339966 409.865082,136.966858 
	C408.678833,135.929077 407.279755,134.440170 407.206146,133.063126 
	C407.155029,132.106079 409.156372,131.039398 410.240753,130.021713 
	C410.970215,131.280716 411.699646,132.539719 412.086456,133.897308 
z"/>
<path fill="#979FAD" opacity="1.000000" stroke="none" 
	d="
M316.997925,140.815308 
	C321.207855,138.848495 322.469482,140.974976 321.902283,144.427948 
	C321.740692,145.411789 319.604950,146.071365 318.374481,146.879639 
	C317.872803,145.785675 317.253204,144.727097 316.910461,143.585403 
	C316.678009,142.811142 316.834259,141.920166 316.997925,140.815308 
z"/>
<path fill="#C4C7C5" opacity="1.000000" stroke="none" 
	d="
M708.688354,561.999573 
	C707.781799,560.805664 707.208069,559.645508 706.634399,558.485413 
	C706.925476,558.342346 707.216553,558.199341 707.507629,558.056274 
	C707.772644,558.571716 708.037598,559.087097 708.034668,559.081360 
	C710.031677,558.391357 711.909180,557.451355 713.867065,557.233704 
	C714.500305,557.163269 715.344299,558.988342 715.572998,559.281433 
	C713.043091,560.344116 711.032227,561.188721 708.688354,561.999573 
z"/>
<path fill="#9DA4B1" opacity="1.000000" stroke="none" 
	d="
M337.388672,142.079712 
	C336.659790,140.902969 336.240540,139.805298 335.821289,138.707626 
	C337.107361,138.733017 339.451874,138.543625 339.507690,138.818665 
	C339.868774,140.597916 339.952057,142.524780 339.582489,144.289337 
	C339.501892,144.674164 337.217987,144.597565 335.948822,144.733459 
	C335.877991,144.330124 335.807159,143.926773 335.736298,143.523438 
	C336.505127,143.262253 337.276672,143.008347 338.038177,142.727280 
	C338.105530,142.702438 338.171356,142.438187 338.127289,142.393005 
	C338.018555,142.281509 337.845520,142.232758 337.388672,142.079712 
z"/>
<path fill="#9297A8" opacity="1.000000" stroke="none" 
	d="
M382.830688,138.321167 
	C381.678528,138.664551 380.222351,138.963043 378.766144,139.261536 
	C378.818146,137.486282 378.870178,135.710999 378.922180,133.935730 
	C380.594879,134.159958 382.267548,134.384186 383.940247,134.608398 
	C383.908783,135.147537 383.877350,135.686676 383.845886,136.225815 
	C382.655243,136.756592 381.464600,137.287369 380.273956,137.818146 
	C380.340363,138.070694 380.406769,138.323242 380.473175,138.575790 
	C381.157684,138.475952 381.842163,138.376099 382.830688,138.321167 
z"/>
<path fill="#9DA4B1" opacity="1.000000" stroke="none" 
	d="
M524.458984,120.516289 
	C525.697754,119.555016 527.072083,118.906311 528.446350,118.257599 
	C528.848022,120.025673 529.680481,121.857262 529.433899,123.529793 
	C529.338623,124.176071 526.796204,124.461586 525.368652,124.911453 
	C525.226990,124.469986 525.085327,124.028519 524.943665,123.587051 
	C525.701172,123.262535 526.458740,122.938019 527.218018,122.610855 
	C526.344666,122.015091 525.469543,121.421974 524.458984,120.516289 
z"/>
<path fill="#EAEBEB" opacity="1.000000" stroke="none" 
	d="
M894.798828,209.471588 
	C891.868347,209.616226 889.043701,209.616226 886.218994,209.616226 
	C886.165161,208.985062 886.111267,208.353897 886.057373,207.722733 
	C888.625244,207.540222 891.193115,207.357727 894.265076,207.291718 
	C894.814331,208.047806 894.859497,208.687378 894.798828,209.471588 
z"/>
<path fill="#DEE1DE" opacity="1.000000" stroke="none" 
	d="
M216.865753,157.179520 
	C211.487030,155.907013 214.281021,152.207916 214.906357,149.476303 
	C215.008942,149.028214 218.166275,149.279419 219.997299,149.561432 
	C220.082809,149.915421 219.970093,150.010406 219.633789,149.904694 
	C213.674362,150.628342 217.001694,154.237686 217.047882,156.929993 
	C216.987274,157.013229 216.865753,157.179520 216.865753,157.179520 
z"/>
<path fill="#77675D" opacity="1.000000" stroke="none" 
	d="
M234.541122,152.585190 
	C233.115555,153.192795 231.689972,153.800400 230.077209,154.201874 
	C229.890015,153.995758 230.040283,153.803757 230.334076,153.556793 
	C230.838409,152.836975 231.048935,152.364105 231.605011,151.933990 
	C232.647385,151.996368 233.344177,152.015961 234.160110,152.178314 
	C234.279251,152.321091 234.541122,152.585190 234.541122,152.585190 
z"/>
<path fill="#77675D" opacity="1.000000" stroke="none" 
	d="
M229.905548,151.073776 
	C231.349060,150.401306 232.872177,149.804367 234.395309,149.207443 
	C234.640045,150.215668 234.884781,151.223877 234.835327,152.408646 
	C234.541122,152.585190 234.279251,152.321091 234.121674,151.852295 
	C232.986404,151.264160 232.008713,151.144852 230.822388,151.103424 
	C230.613754,151.181335 230.175217,151.259186 230.175217,151.259186 
	C230.175217,151.259186 229.985184,151.149323 229.905548,151.073776 
z"/>
<path fill="#737888" opacity="1.000000" stroke="none" 
	d="
M133.599457,286.904236 
	C135.191803,286.911377 136.488693,286.698639 137.785599,286.485870 
	C137.708542,286.935028 137.631470,287.384155 137.554413,287.833313 
	C135.555099,287.403015 133.555786,286.972748 131.556488,286.542480 
	C131.755310,286.048492 131.954132,285.554504 132.152969,285.060516 
	C132.536652,285.601807 132.920334,286.143066 133.599457,286.904236 
z"/>
<path fill="#EFF1F5" opacity="1.000000" stroke="none" 
	d="
M497.344421,281.398315 
	C497.719330,282.733032 497.878540,284.266144 498.037750,285.799255 
	C497.734711,285.805603 497.431702,285.811951 497.128693,285.818329 
	C497.128693,284.411102 497.128693,283.003906 497.344421,281.398315 
z"/>
<path fill="#EFF1F5" opacity="1.000000" stroke="none" 
	d="
M916.003174,244.177155 
	C915.945374,245.274429 915.885681,246.047287 915.825989,246.820145 
	C915.638062,246.812607 915.450134,246.805084 915.262207,246.797546 
	C915.262207,245.290726 915.262207,243.783905 915.262207,242.277084 
	C915.401367,242.256516 915.540527,242.235931 915.679626,242.215363 
	C915.786804,242.761154 915.894043,243.306946 916.003174,244.177155 
z"/>
<path fill="#EFF1F5" opacity="1.000000" stroke="none" 
	d="
M497.998779,296.999634 
	C497.998779,295.078217 497.998779,293.156830 497.998779,291.235413 
	C498.343292,291.252075 498.687775,291.268738 499.032288,291.285400 
	C498.858032,293.010376 498.683777,294.735321 498.254761,296.730164 
	C498.000000,297.000000 497.998779,296.999634 497.998779,296.999634 
z"/>
<path fill="#EFF1F5" opacity="1.000000" stroke="none" 
	d="
M509.722412,287.371124 
	C509.897461,288.648773 509.897461,289.708984 509.897461,290.769165 
	C509.600922,290.745422 509.304413,290.721649 509.007874,290.697876 
	C509.187714,289.516479 509.367523,288.335083 509.722412,287.371124 
z"/>
<path fill="#201F2E" opacity="1.000000" stroke="none" 
	d="
M251.966614,150.470474 
	C251.985886,149.521149 252.022232,148.923904 252.058578,148.326660 
	C252.345001,148.327469 252.631409,148.328262 252.917831,148.329056 
	C252.917831,149.440552 252.927917,150.552277 252.902985,151.663208 
	C252.900345,151.780853 252.692154,151.893890 252.579315,152.009079 
	C252.380768,151.613571 252.182220,151.218063 251.966614,150.470474 
z"/>
<path fill="#595155" opacity="1.000000" stroke="none" 
	d="
M144.704300,285.664490 
	C144.894592,286.730347 144.894592,287.524628 144.894592,288.318939 
	C144.646103,288.303223 144.397629,288.287506 144.149139,288.271790 
	C144.270767,287.312134 144.392380,286.352509 144.704300,285.664490 
z"/>
<path fill="#EAEBEB" opacity="1.000000" stroke="none" 
	d="
M535.309937,247.954010 
	C535.491150,247.389587 535.980225,246.777512 536.792725,246.148651 
	C536.616699,246.723343 536.117249,247.314850 535.309937,247.954010 
z"/>
<path fill="#DEE1DE" opacity="1.000000" stroke="none" 
	d="
M220.014969,156.032135 
	C219.169327,156.623383 218.222336,157.111267 217.070557,157.389343 
	C216.865753,157.179520 216.987274,157.013229 217.314453,156.832809 
	C218.330200,156.343491 219.018768,156.034592 219.707336,155.725693 
	C219.707336,155.725693 219.913635,155.928772 220.014969,156.032135 
z"/>
<path fill="#737888" opacity="1.000000" stroke="none" 
	d="
M160.208374,285.247620 
	C160.611115,285.684692 160.764267,286.317383 160.917435,286.950104 
	C160.684631,286.996338 160.451828,287.042603 160.219025,287.088867 
	C160.132294,286.540314 160.045547,285.991791 160.208374,285.247620 
z"/>
<path fill="#77675D" opacity="1.000000" stroke="none" 
	d="
M162.490417,283.788879 
	C162.835342,283.623291 163.347839,283.717468 163.860352,283.811646 
	C163.806198,284.099884 163.752045,284.388123 163.697891,284.676361 
	C163.351257,284.467133 163.004623,284.257904 162.490417,283.788879 
z"/>
<path fill="#EFF1F5" opacity="1.000000" stroke="none" 
	d="
M495.998474,298.997864 
	C496.125275,298.692383 496.319855,298.440125 496.790344,298.119507 
	C497.000000,298.000000 497.001221,298.001221 497.001221,298.001221 
	C496.877167,298.307220 496.684479,298.561157 496.213898,298.883057 
	C496.004578,299.003052 496.000000,299.000000 495.998474,298.997864 
z"/>
<path fill="#EFF1F5" opacity="1.000000" stroke="none" 
	d="
M496.999390,297.999390 
	C497.126617,297.695160 497.320770,297.442505 497.790009,297.120209 
	C497.998779,296.999634 498.000000,297.000000 498.000214,297.000610 
	C497.875549,297.306976 497.682312,297.560638 497.210968,297.881714 
	C497.001221,298.001221 497.000000,298.000000 496.999390,297.999390 
z"/>
<path fill="#EFF1F5" opacity="1.000000" stroke="none" 
	d="
M915.531250,252.482193 
	C915.549988,252.519531 915.512451,252.444855 915.531250,252.482193 
z"/>
<path fill="#2C2B36" opacity="1.000000" stroke="none" 
	d="
M92.266304,221.791458 
	C92.096153,221.642441 92.141418,221.483459 92.380096,221.314804 
	C92.642120,221.475525 92.611534,221.634308 92.266304,221.791458 
z"/>
<path fill="#2B2C3B" opacity="1.000000" stroke="none" 
	d="
M73.838211,168.405518 
	C72.008263,163.681290 73.273346,162.361557 78.177399,161.770447 
	C81.572212,161.361267 84.623131,160.199081 86.486267,164.116348 
	C86.720360,164.608536 86.136070,165.489975 86.091522,166.405762 
	C86.252075,166.620468 86.257019,166.545135 86.257019,166.545135 
	C85.450127,166.687454 84.643227,166.829758 83.054901,167.023499 
	C80.866142,167.454559 79.458824,167.834183 77.992096,167.858826 
	C76.966225,166.838196 75.999756,166.172516 75.033279,165.506851 
	C74.634918,166.473068 74.236565,167.439301 73.838211,168.405518 
z"/>
<path fill="#2F3442" opacity="1.000000" stroke="none" 
	d="
M73.913818,168.771729 
	C74.236565,167.439301 74.634918,166.473068 75.033279,165.506851 
	C75.999756,166.172516 76.966225,166.838196 77.697968,168.104828 
	C76.961563,170.372238 76.459885,172.038696 75.958214,173.705139 
	C76.507202,173.952286 77.056190,174.199432 77.605179,174.446564 
	C77.579422,170.240463 79.760063,169.370468 82.982391,170.075516 
	C83.571678,171.997787 83.323471,175.106796 88.529953,170.486557 
	C88.065582,171.731445 87.601204,172.976334 87.136833,174.221222 
	C83.639801,174.688950 80.071304,175.728195 76.685677,175.304916 
	C75.547714,175.162643 74.874863,171.300079 73.913818,168.771729 
z"/>
<path fill="#595155" opacity="1.000000" stroke="none" 
	d="
M141.123718,162.453156 
	C141.824951,162.086227 142.288376,161.435165 142.848175,160.881561 
	C143.041107,160.690750 143.474243,160.742828 143.881409,160.668716 
	C143.421661,162.465500 142.973145,164.218414 142.275330,166.945587 
	C140.667435,164.789383 139.742386,163.548889 138.410126,161.762299 
	C138.180267,163.630859 138.021774,164.919373 137.863266,166.207901 
	C137.591461,166.215393 137.319672,166.222885 137.047867,166.230377 
	C136.626556,163.151855 136.205261,160.073334 135.783951,156.994812 
	C136.243652,156.804840 136.703369,156.614853 137.163071,156.424881 
	C138.416626,158.352341 139.670166,160.279816 141.123718,162.453156 
z"/>
<path fill="#595155" opacity="1.000000" stroke="none" 
	d="
M104.738045,160.088211 
	C108.768326,163.005600 108.755569,164.397537 105.330414,166.546738 
	C104.075195,167.334366 103.135765,168.625259 101.880577,169.854782 
	C99.708443,165.877930 102.058754,162.986908 104.738045,160.088211 
z"/>
<path fill="#595155" opacity="1.000000" stroke="none" 
	d="
M111.235474,164.978714 
	C112.153061,164.639267 112.713455,164.411133 113.273849,164.182999 
	C113.238525,163.959396 113.203194,163.735809 113.167870,163.512207 
	C112.067703,163.512207 110.967537,163.512207 109.216080,163.512207 
	C114.575874,160.696060 114.808037,160.892853 115.834061,168.896973 
	C113.787056,168.737457 111.859444,168.587234 109.931839,168.437027 
	C110.247314,167.321365 110.562790,166.205688 111.235474,164.978714 
z"/>
<path fill="#DEE1DE" opacity="1.000000" stroke="none" 
	d="
M82.980064,169.711853 
	C79.760063,169.370468 77.579422,170.240463 77.605179,174.446564 
	C77.056190,174.199432 76.507202,173.952286 75.958214,173.705139 
	C76.459885,172.038696 76.961563,170.372238 77.757370,168.459793 
	C79.458824,167.834183 80.866142,167.454559 82.646072,167.120728 
	C83.005028,167.893738 82.991386,168.620956 82.980064,169.711853 
z"/>
<path fill="#2B2C3B" opacity="1.000000" stroke="none" 
	d="
M86.288727,166.608459 
	C86.284248,166.987595 86.243126,167.378738 86.201996,167.769897 
	C86.304237,167.453781 86.406471,167.137680 86.382866,166.683350 
	C86.257019,166.545135 86.252075,166.620468 86.288727,166.608459 
z"/>
<path fill="#EAEBEB" opacity="1.000000" stroke="none" 
	d="
M118.226654,371.149750 
	C119.928329,372.372620 121.757538,373.500427 122.366692,375.094482 
	C122.699432,375.965149 121.153275,377.831787 120.063164,378.815796 
	C119.687057,379.155334 117.262436,378.206024 117.252113,377.807220 
	C117.195717,375.627747 117.599701,373.436401 118.226654,371.149750 
z"/>
<path fill="#EAEBEB" opacity="1.000000" stroke="none" 
	d="
M84.204269,221.542923 
	C83.944611,218.709091 83.728416,216.286545 83.380096,212.383362 
	C86.010170,213.595520 88.499069,213.954483 89.185097,215.260468 
	C90.022224,216.854126 89.871651,219.483536 89.095512,221.184708 
	C88.720238,222.007248 85.939400,221.732269 84.204269,221.542923 
z"/>
<path fill="#FEFEFF" opacity="1.000000" stroke="none" 
	d="
M697.001953,106.002594 
	C697.003967,106.005196 697.214722,105.605774 697.214722,105.605774 
	C697.214722,105.605774 697.205627,105.887321 697.100220,105.941795 
	C696.994751,105.996269 697.000000,106.000000 697.001953,106.002594 
z"/>
<path fill="#DEE1DE" opacity="1.000000" stroke="none" 
	d="
M136.800995,215.646759 
	C135.577744,216.517929 134.412582,216.992813 133.247437,217.467712 
	C132.880676,216.101608 132.255966,214.733658 132.265594,213.370224 
	C132.269852,212.768250 133.561050,212.175385 134.267990,211.578400 
	C135.131699,212.802429 135.995407,214.026443 136.800995,215.646759 
z"/>
<path fill="#DEE1DE" opacity="1.000000" stroke="none" 
	d="
M174.813141,207.785248 
	C178.071228,206.245453 178.990021,208.177795 178.871964,210.507507 
	C178.817383,211.584625 177.389465,212.592133 176.584198,213.631210 
	C175.921402,211.790634 175.258621,209.950073 174.813141,207.785248 
z"/>
<path fill="#EAEBEB" opacity="1.000000" stroke="none" 
	d="
M148.124039,211.782318 
	C147.785950,213.684219 147.323914,215.230972 146.861877,216.777725 
	C146.019928,216.422363 144.554138,216.191895 144.453262,215.688141 
	C144.153625,214.191559 144.391220,212.587418 144.418808,211.025330 
	C145.612579,211.159271 146.806335,211.293213 148.124039,211.782318 
z"/>
<path fill="#FEFEFF" opacity="1.000000" stroke="none" 
	d="
M101.972183,239.030304 
	C100.789825,239.214020 99.634979,239.364182 98.480133,239.514328 
	C98.464226,239.135040 98.448311,238.755768 98.432404,238.376480 
	C99.512520,238.376480 100.592644,238.376480 101.862411,238.652008 
	C102.052055,238.927521 101.999702,238.996750 101.972183,239.030304 
z"/>
<path fill="#FEFEFF" opacity="1.000000" stroke="none" 
	d="
M219.779724,155.335876 
	C219.018768,156.034592 218.330200,156.343491 217.375061,156.749573 
	C217.001694,154.237686 213.674362,150.628342 219.575668,149.950043 
	C219.853256,151.716080 219.852692,153.331070 219.779724,155.335876 
z"/>
<path fill="#2C2B36" opacity="1.000000" stroke="none" 
	d="
M230.097931,151.553589 
	C230.175217,151.259186 230.613754,151.181335 230.847260,151.328217 
	C231.080765,151.475098 231.259445,151.891220 231.259445,151.891220 
	C231.048935,152.364105 230.838409,152.836975 230.422882,153.473267 
	C230.152130,153.040466 230.086395,152.444244 230.097931,151.553589 
z"/>
<path fill="#EFF1F5" opacity="1.000000" stroke="none" 
	d="
M617.335510,113.294968 
	C617.232605,111.320038 617.442627,109.564201 617.652588,107.808350 
	C618.690552,108.353279 620.361877,108.674667 620.647888,109.484962 
	C621.511414,111.932114 620.577026,113.604118 617.335510,113.294968 
z"/>
<path fill="#FEFEFF" opacity="1.000000" stroke="none" 
	d="
M638.545532,110.840714 
	C638.959351,110.460045 639.566101,110.309532 640.172913,110.159019 
	C640.217834,110.378578 640.262756,110.598137 640.307678,110.817696 
	C639.784607,110.902084 639.261597,110.986481 638.545532,110.840714 
z"/>
<path fill="#C4C7C5" opacity="1.000000" stroke="none" 
	d="
M231.605011,151.933990 
	C231.259445,151.891220 231.080765,151.475098 231.055908,151.250305 
	C232.008713,151.144852 232.986404,151.264160 234.002533,151.709518 
	C233.344177,152.015961 232.647385,151.996368 231.605011,151.933990 
z"/>
</svg>